<svg xmlns="http://www.w3.org/2000/svg" xmlns:xlink="http://www.w3.org/1999/xlink" width="500" zoomAndPan="magnify" viewBox="0 0 375 374.999991" height="500" preserveAspectRatio="xMidYMid meet" version="1.0"><defs><clipPath id="275cdc1fac"><path d="M 55.6875 37.5 L 319.6875 37.5 L 319.6875 337.5 L 55.6875 337.5 Z M 55.6875 37.5 " clip-rule="nonzero"/></clipPath></defs><g clip-path="url(#275cdc1fac)"><path fill="#000000" d="M 196.476562 55.347656 L 196.476562 37.734375 L 178.863281 37.734375 L 178.863281 55.347656 L 161.308594 55.347656 L 161.308594 73.019531 L 161.308594 55.347656 L 108.523438 55.347656 L 108.523438 73.019531 L 90.96875 73.019531 L 90.96875 125.914062 L 73.414062 125.914062 L 73.414062 143.582031 L 55.800781 143.582031 L 55.800781 267.039062 L 73.414062 267.039062 L 73.414062 284.707031 L 90.96875 284.707031 L 90.96875 302.320312 L 108.523438 302.320312 L 108.523438 319.988281 L 126.136719 319.988281 L 126.136719 337.601562 L 231.644531 337.601562 L 231.644531 319.988281 L 249.199219 319.988281 L 249.199219 302.320312 L 266.757812 302.320312 L 266.757812 284.707031 L 284.371094 284.707031 L 284.371094 267.039062 L 301.925781 267.039062 L 301.925781 249.425781 L 319.539062 249.425781 L 319.539062 143.582031 L 301.925781 143.582031 L 301.925781 125.914062 L 284.371094 125.914062 L 284.371094 108.300781 L 249.199219 108.300781 L 249.199219 90.628906 L 214.03125 90.628906 L 214.03125 55.347656 Z M 196.476562 55.347656 " fill-opacity="1" fill-rule="evenodd"/></g><path fill="#34de00" d="M 249.199219 125.914062 L 249.199219 108.300781 L 196.476562 108.300781 L 196.476562 125.914062 L 178.863281 125.914062 L 178.863281 143.582031 L 143.695312 143.582031 L 143.695312 125.914062 L 90.96875 125.914062 L 90.96875 143.582031 L 73.414062 143.582031 L 73.414062 267.039062 L 90.96875 267.039062 L 90.96875 284.707031 L 108.523438 284.707031 L 108.523438 302.320312 L 126.136719 302.320312 L 126.136719 319.988281 L 231.644531 319.988281 L 231.644531 302.320312 L 249.199219 302.320312 L 249.199219 284.707031 L 266.757812 284.707031 L 266.757812 267.039062 L 284.371094 267.039062 L 284.371094 249.425781 L 301.925781 249.425781 L 301.925781 143.582031 L 284.371094 143.582031 L 284.371094 125.914062 Z M 249.199219 125.914062 " fill-opacity="1" fill-rule="evenodd"/><path fill="#ffffff" d="M 231.644531 143.582031 L 266.757812 143.582031 L 266.757812 178.863281 L 231.644531 178.863281 Z M 231.644531 143.582031 " fill-opacity="1" fill-rule="evenodd"/><path fill="#189f3f" d="M 161.308594 143.582031 L 178.863281 143.582031 L 178.863281 90.628906 L 161.308594 90.628906 L 161.308594 73.019531 L 108.523438 73.019531 L 108.523438 108.300781 L 126.136719 108.300781 L 126.136719 125.914062 L 143.695312 125.914062 L 143.695312 143.582031 Z M 161.308594 143.582031 " fill-opacity="1" fill-rule="evenodd"/><path fill="#3b1707" d="M 178.863281 55.347656 L 196.417969 55.347656 L 196.417969 125.914062 L 178.863281 125.914062 Z M 178.863281 55.347656 " fill-opacity="1" fill-rule="evenodd"/></svg>