<svg xmlns="http://www.w3.org/2000/svg" xmlns:xlink="http://www.w3.org/1999/xlink" width="500" zoomAndPan="magnify" viewBox="0 0 375 374.999991" height="500" preserveAspectRatio="xMidYMid meet" version="1.0"><defs><clipPath id="c420133aa6"><path d="M 53.316406 37.5 L 321.816406 37.5 L 321.816406 337.5 L 53.316406 337.5 Z M 53.316406 37.5 " clip-rule="nonzero"/></clipPath></defs><path fill="#ff0000" d="M 283.257812 65.039062 L 262.558594 85.738281 L 257.15625 80.398438 L 246.476562 69.660156 L 241.796875 65.039062 L 246.476562 58.921875 L 254.636719 50.578125 L 254.699219 53.28125 L 257.15625 48.238281 L 262.558594 42.839844 L 267.898438 48.238281 L 270.359375 53.28125 L 270.417969 50.578125 L 278.636719 58.921875 Z M 262.496094 176.519531 L 262.496094 171.238281 L 246.417969 155.160156 L 235.738281 144.421875 L 224.996094 133.980469 L 203.578125 123.238281 L 198.179688 117.898438 L 198.179688 96.480469 L 192.835938 91.078125 L 187.496094 87.71875 L 166.078125 85.738281 L 166.019531 85.738281 L 144.597656 87.71875 L 139.257812 91.078125 L 133.917969 96.480469 L 133.917969 117.898438 L 128.578125 123.238281 L 107.097656 133.980469 L 96.417969 144.421875 L 85.679688 155.160156 L 74.9375 165.898438 L 69.597656 171.238281 L 69.597656 176.519531 L 64.257812 187.320312 L 58.859375 192.660156 L 58.859375 252 L 64.257812 262.738281 L 69.597656 268.078125 L 69.597656 278.761719 L 74.9375 284.160156 L 85.679688 294.839844 L 96.417969 305.578125 L 107.097656 316.078125 L 128.578125 326.761719 L 133.917969 332.160156 L 198.179688 332.160156 L 203.578125 326.761719 L 224.996094 316.078125 L 235.738281 305.578125 L 246.417969 294.839844 L 257.15625 284.160156 L 262.496094 278.761719 L 262.496094 268.078125 L 267.898438 262.738281 L 273.238281 252 L 273.238281 192.660156 L 267.898438 187.320312 Z M 262.496094 176.519531 " fill-opacity="1" fill-rule="nonzero"/><path fill="#f7f7f0" d="M 267.898438 58.921875 L 267.898438 69.660156 L 257.15625 69.660156 L 257.15625 58.921875 Z M 96.417969 198 L 96.417969 208.679688 L 85.679688 208.679688 L 85.679688 240.839844 L 96.417969 240.839844 L 96.417969 262.261719 L 107.097656 262.261719 L 107.097656 187.320312 L 96.417969 187.320312 Z M 96.417969 198 " fill-opacity="1" fill-rule="nonzero"/><g clip-path="url(#c420133aa6)"><path fill="#fd0100" d="M 224.996094 37.5 L 224.996094 48.238281 L 182.15625 48.238281 L 182.15625 37.5 Z M 171.417969 58.921875 L 160.679688 58.921875 L 160.679688 80.398438 L 139.257812 80.398438 L 139.257812 91.078125 L 128.578125 91.078125 L 128.578125 123.238281 L 203.578125 123.238281 L 203.578125 91.078125 L 192.835938 91.078125 L 192.835938 80.398438 L 171.417969 80.398438 L 171.417969 58.921875 L 182.15625 58.980469 L 182.15625 48.238281 L 171.417969 48.238281 Z M 257.21875 69.660156 L 246.476562 69.660156 L 246.476562 80.398438 L 257.15625 80.398438 L 257.15625 91.140625 L 267.898438 91.140625 L 267.898438 80.398438 L 257.21875 80.398438 Z M 267.898438 80.398438 L 278.636719 80.398438 L 278.636719 69.660156 L 267.898438 69.660156 Z M 257.21875 58.980469 L 257.21875 48.238281 L 267.898438 48.238281 L 267.898438 37.5 L 257.15625 37.5 L 257.15625 48.238281 L 246.476562 48.238281 L 246.476562 58.921875 L 235.738281 58.921875 L 235.738281 48.238281 L 224.996094 48.238281 L 224.996094 58.980469 L 235.738281 58.980469 L 235.738281 69.660156 L 246.476562 69.660156 L 246.476562 58.980469 Z M 289.378906 58.921875 L 278.636719 58.921875 L 278.636719 48.238281 L 267.898438 48.238281 L 267.898438 58.980469 L 278.636719 58.980469 L 278.636719 69.660156 L 289.378906 69.660156 Z M 289.316406 48.238281 L 300.058594 48.238281 L 300.058594 37.5 L 289.316406 37.5 Z M 310.738281 58.921875 L 310.738281 69.660156 L 321.476562 69.660156 L 321.476562 58.921875 Z M 289.316406 91.140625 L 300.058594 91.140625 L 300.058594 80.398438 L 289.316406 80.398438 Z M 96.417969 144.660156 L 107.097656 144.660156 L 107.097656 133.980469 L 96.417969 133.980469 L 96.417969 144.421875 L 85.679688 144.421875 L 85.679688 155.160156 L 96.417969 155.160156 Z M 85.679688 155.160156 L 74.9375 155.160156 L 74.9375 165.898438 L 85.679688 165.898438 Z M 128.578125 133.980469 L 128.578125 123.238281 L 107.097656 123.238281 L 107.097656 133.980469 Z M 74.9375 176.578125 L 74.9375 165.898438 L 64.257812 165.898438 L 64.257812 187.320312 L 74.9375 187.320312 C 74.9375 187.320312 74.9375 176.578125 74.9375 176.578125 Z M 96.417969 305.339844 L 96.417969 294.839844 L 85.679688 294.839844 L 85.679688 284.160156 L 74.9375 284.160156 L 74.9375 294.898438 L 85.679688 294.898438 L 85.679688 305.578125 L 96.417969 305.578125 L 96.417969 316.078125 L 107.097656 316.078125 L 107.097656 305.339844 Z M 117.835938 316.078125 L 107.097656 316.078125 L 107.097656 326.761719 L 128.578125 326.761719 L 128.578125 316.078125 Z M 74.9375 262.738281 L 64.257812 262.738281 L 64.257812 284.160156 L 74.9375 284.160156 L 74.9375 273.421875 C 74.9375 273.421875 74.9375 262.738281 74.9375 262.738281 Z M 64.257812 241.261719 L 64.257812 187.320312 L 53.519531 187.320312 L 53.519531 262.738281 L 64.257812 262.738281 Z M 235.738281 144.660156 L 235.738281 155.160156 L 246.476562 155.160156 L 246.476562 144.421875 L 235.738281 144.421875 L 235.738281 133.980469 L 224.996094 133.980469 L 224.996094 144.660156 Z M 257.15625 165.898438 L 257.15625 187.320312 L 267.898438 187.320312 L 267.898438 165.898438 L 257.15625 165.898438 L 257.21875 155.160156 L 246.476562 155.160156 L 246.476562 165.898438 Z M 214.316406 133.980469 L 224.996094 133.980469 L 224.996094 123.238281 L 203.578125 123.238281 L 203.578125 133.980469 Z M 267.898438 208.738281 L 267.898438 262.738281 L 278.636719 262.738281 L 278.636719 187.320312 L 267.898438 187.320312 Z M 182.15625 326.761719 L 128.578125 326.761719 L 128.578125 337.5 L 203.578125 337.5 L 203.578125 326.761719 Z M 203.578125 316.078125 L 203.578125 326.761719 L 224.996094 326.761719 L 224.996094 316.078125 Z M 257.15625 273.421875 L 257.15625 284.160156 L 246.476562 284.160156 L 246.476562 294.839844 L 235.738281 294.839844 L 235.738281 305.339844 L 224.996094 305.339844 L 224.996094 316.078125 L 235.738281 316.078125 L 235.738281 305.578125 L 246.476562 305.578125 L 246.476562 294.898438 L 257.21875 294.898438 L 257.21875 284.160156 L 267.898438 284.160156 L 267.898438 262.738281 L 257.15625 262.738281 Z M 257.15625 273.421875 " fill-opacity="1" fill-rule="nonzero"/></g></svg>