<svg xmlns="http://www.w3.org/2000/svg" xmlns:xlink="http://www.w3.org/1999/xlink" width="500" zoomAndPan="magnify" viewBox="0 0 375 374.999991" height="500" preserveAspectRatio="xMidYMid meet" version="1.0"><defs><g/></defs><g fill="#ffffff" fill-opacity="1"><g transform="translate(39.025535, 180.13438)"><g><path d="M 18.5625 -9.28125 L 18.5625 -18.5625 L 9.28125 -18.5625 L 9.28125 -27.84375 L 0 -27.84375 L 0 -55.671875 L 9.28125 -55.671875 L 9.28125 -64.953125 L 18.5625 -64.953125 L 18.5625 -74.234375 L 64.953125 -74.234375 L 64.953125 -64.953125 L 27.84375 -64.953125 L 27.84375 -55.671875 L 18.5625 -55.671875 L 18.5625 -27.84375 L 27.84375 -27.84375 L 27.84375 -18.5625 L 46.390625 -18.5625 L 46.390625 -37.125 L 37.125 -37.125 L 37.125 -46.390625 L 64.953125 -46.390625 L 64.953125 -9.28125 Z M 18.5625 -9.28125 "/></g></g></g><g fill="#ffffff" fill-opacity="1"><g transform="translate(113.256947, 180.13438)"><g><path d="M 0 -9.28125 L 0 -55.671875 L 9.28125 -55.671875 L 9.28125 -64.953125 L 18.5625 -64.953125 L 18.5625 -74.234375 L 46.390625 -74.234375 L 46.390625 -64.953125 L 55.671875 -64.953125 L 55.671875 -55.671875 L 64.953125 -55.671875 L 64.953125 -9.28125 L 46.390625 -9.28125 L 46.390625 -27.84375 L 18.5625 -27.84375 L 18.5625 -9.28125 Z M 18.5625 -37.125 L 46.390625 -37.125 L 46.390625 -55.671875 L 37.125 -55.671875 L 37.125 -64.953125 L 27.84375 -64.953125 L 27.84375 -55.671875 L 18.5625 -55.671875 Z M 18.5625 -37.125 "/></g></g></g><g fill="#ffffff" fill-opacity="1"><g transform="translate(187.48836, 180.13438)"><g><path d="M 0 -9.28125 L 0 -74.234375 L 18.5625 -74.234375 L 18.5625 -64.953125 L 27.84375 -64.953125 L 27.84375 -55.671875 L 37.125 -55.671875 L 37.125 -64.953125 L 46.390625 -64.953125 L 46.390625 -74.234375 L 64.953125 -74.234375 L 64.953125 -9.28125 L 46.390625 -9.28125 L 46.390625 -46.390625 L 37.125 -46.390625 L 37.125 -27.84375 L 27.84375 -27.84375 L 27.84375 -46.390625 L 18.5625 -46.390625 L 18.5625 -9.28125 Z M 0 -9.28125 "/></g></g></g><g fill="#ffffff" fill-opacity="1"><g transform="translate(261.719772, 180.13438)"><g><path d="M 0 -9.28125 L 0 -74.234375 L 64.953125 -74.234375 L 64.953125 -64.953125 L 18.5625 -64.953125 L 18.5625 -46.390625 L 55.671875 -46.390625 L 55.671875 -37.125 L 18.5625 -37.125 L 18.5625 -18.5625 L 64.953125 -18.5625 L 64.953125 -9.28125 Z M 0 -9.28125 "/></g></g></g><g fill="#fd0100" fill-opacity="1"><g transform="translate(39.025535, 268.811561)"><g><path d="M 9.28125 -9.28125 L 9.28125 -18.5625 L 0 -18.5625 L 0 -64.953125 L 9.28125 -64.953125 L 9.28125 -74.234375 L 55.671875 -74.234375 L 55.671875 -64.953125 L 64.953125 -64.953125 L 64.953125 -18.5625 L 55.671875 -18.5625 L 55.671875 -9.28125 Z M 18.5625 -18.5625 L 46.390625 -18.5625 L 46.390625 -64.953125 L 18.5625 -64.953125 Z M 18.5625 -18.5625 "/></g></g></g><g fill="#fd0100" fill-opacity="1"><g transform="translate(113.256947, 268.811561)"><g><path d="M 27.84375 -9.28125 L 27.84375 -18.5625 L 18.5625 -18.5625 L 18.5625 -27.84375 L 9.28125 -27.84375 L 9.28125 -37.125 L 0 -37.125 L 0 -74.234375 L 18.5625 -74.234375 L 18.5625 -46.390625 L 27.84375 -46.390625 L 27.84375 -37.125 L 37.125 -37.125 L 37.125 -46.390625 L 46.390625 -46.390625 L 46.390625 -74.234375 L 64.953125 -74.234375 L 64.953125 -37.125 L 55.671875 -37.125 L 55.671875 -27.84375 L 46.390625 -27.84375 L 46.390625 -18.5625 L 37.125 -18.5625 L 37.125 -9.28125 Z M 27.84375 -9.28125 "/></g></g></g><g fill="#fd0100" fill-opacity="1"><g transform="translate(187.48836, 268.811561)"><g><path d="M 0 -9.28125 L 0 -74.234375 L 64.953125 -74.234375 L 64.953125 -64.953125 L 18.5625 -64.953125 L 18.5625 -46.390625 L 55.671875 -46.390625 L 55.671875 -37.125 L 18.5625 -37.125 L 18.5625 -18.5625 L 64.953125 -18.5625 L 64.953125 -9.28125 Z M 0 -9.28125 "/></g></g></g><g fill="#fd0100" fill-opacity="1"><g transform="translate(261.719772, 268.811561)"><g><path d="M 0 -9.28125 L 0 -74.234375 L 55.671875 -74.234375 L 55.671875 -64.953125 L 64.953125 -64.953125 L 64.953125 -37.125 L 46.390625 -37.125 L 46.390625 -27.84375 L 55.671875 -27.84375 L 55.671875 -18.5625 L 64.953125 -18.5625 L 64.953125 -9.28125 L 37.125 -9.28125 L 37.125 -18.5625 L 27.84375 -18.5625 L 27.84375 -27.84375 L 18.5625 -27.84375 L 18.5625 -9.28125 Z M 18.5625 -37.125 L 37.125 -37.125 L 37.125 -46.390625 L 46.390625 -46.390625 L 46.390625 -64.953125 L 18.5625 -64.953125 Z M 18.5625 -37.125 "/></g></g></g></svg>