<svg xmlns="http://www.w3.org/2000/svg" xmlns:xlink="http://www.w3.org/1999/xlink" width="300" zoomAndPan="magnify" viewBox="0 0 224.87999 74.999997" height="100" preserveAspectRatio="xMidYMid meet" version="1.0"><defs><g/><clipPath id="7915cb5983"><path d="M 0 0.0195312 L 224.761719 0.0195312 L 224.761719 74.980469 L 0 74.980469 Z M 0 0.0195312 " clip-rule="nonzero"/></clipPath></defs><g clip-path="url(#7915cb5983)"><path fill="#ffffff" d="M 0 0.0195312 L 224.878906 0.0195312 L 224.878906 74.980469 L 0 74.980469 Z M 0 0.0195312 " fill-opacity="1" fill-rule="nonzero"/><path fill="#0a0a0a" d="M 0 0.0195312 L 224.878906 0.0195312 L 224.878906 74.980469 L 0 74.980469 Z M 0 0.0195312 " fill-opacity="1" fill-rule="nonzero"/></g><g fill="#ffffff" fill-opacity="1"><g transform="translate(62.237022, 35.0095)"><g><path d="M 6.28125 -3.140625 L 6.28125 -6.28125 L 3.140625 -6.28125 L 3.140625 -9.40625 L 0 -9.40625 L 0 -18.828125 L 3.140625 -18.828125 L 3.140625 -21.953125 L 6.28125 -21.953125 L 6.28125 -25.09375 L 21.953125 -25.09375 L 21.953125 -21.953125 L 9.40625 -21.953125 L 9.40625 -18.828125 L 6.28125 -18.828125 L 6.28125 -9.40625 L 9.40625 -9.40625 L 9.40625 -6.28125 L 15.6875 -6.28125 L 15.6875 -12.546875 L 12.546875 -12.546875 L 12.546875 -15.6875 L 21.953125 -15.6875 L 21.953125 -3.140625 Z M 6.28125 -3.140625 "/></g></g></g><g fill="#ffffff" fill-opacity="1"><g transform="translate(87.336543, 35.0095)"><g><path d="M 0 -3.140625 L 0 -18.828125 L 3.140625 -18.828125 L 3.140625 -21.953125 L 6.28125 -21.953125 L 6.28125 -25.09375 L 15.6875 -25.09375 L 15.6875 -21.953125 L 18.828125 -21.953125 L 18.828125 -18.828125 L 21.953125 -18.828125 L 21.953125 -3.140625 L 15.6875 -3.140625 L 15.6875 -9.40625 L 6.28125 -9.40625 L 6.28125 -3.140625 Z M 6.28125 -12.546875 L 15.6875 -12.546875 L 15.6875 -18.828125 L 12.546875 -18.828125 L 12.546875 -21.953125 L 9.40625 -21.953125 L 9.40625 -18.828125 L 6.28125 -18.828125 Z M 6.28125 -12.546875 "/></g></g></g><g fill="#ffffff" fill-opacity="1"><g transform="translate(112.436063, 35.0095)"><g><path d="M 0 -3.140625 L 0 -25.09375 L 6.28125 -25.09375 L 6.28125 -21.953125 L 9.40625 -21.953125 L 9.40625 -18.828125 L 12.546875 -18.828125 L 12.546875 -21.953125 L 15.6875 -21.953125 L 15.6875 -25.09375 L 21.953125 -25.09375 L 21.953125 -3.140625 L 15.6875 -3.140625 L 15.6875 -15.6875 L 12.546875 -15.6875 L 12.546875 -9.40625 L 9.40625 -9.40625 L 9.40625 -15.6875 L 6.28125 -15.6875 L 6.28125 -3.140625 Z M 0 -3.140625 "/></g></g></g><g fill="#ffffff" fill-opacity="1"><g transform="translate(137.535583, 35.0095)"><g><path d="M 0 -3.140625 L 0 -25.09375 L 21.953125 -25.09375 L 21.953125 -21.953125 L 6.28125 -21.953125 L 6.28125 -15.6875 L 18.828125 -15.6875 L 18.828125 -12.546875 L 6.28125 -12.546875 L 6.28125 -6.28125 L 21.953125 -6.28125 L 21.953125 -3.140625 Z M 0 -3.140625 "/></g></g></g><g fill="#fd0100" fill-opacity="1"><g transform="translate(62.237022, 64.993501)"><g><path d="M 3.140625 -3.140625 L 3.140625 -6.28125 L 0 -6.28125 L 0 -21.953125 L 3.140625 -21.953125 L 3.140625 -25.09375 L 18.828125 -25.09375 L 18.828125 -21.953125 L 21.953125 -21.953125 L 21.953125 -6.28125 L 18.828125 -6.28125 L 18.828125 -3.140625 Z M 6.28125 -6.28125 L 15.6875 -6.28125 L 15.6875 -21.953125 L 6.28125 -21.953125 Z M 6.28125 -6.28125 "/></g></g></g><g fill="#fd0100" fill-opacity="1"><g transform="translate(87.336543, 64.993501)"><g><path d="M 9.40625 -3.140625 L 9.40625 -6.28125 L 6.28125 -6.28125 L 6.28125 -9.40625 L 3.140625 -9.40625 L 3.140625 -12.546875 L 0 -12.546875 L 0 -25.09375 L 6.28125 -25.09375 L 6.28125 -15.6875 L 9.40625 -15.6875 L 9.40625 -12.546875 L 12.546875 -12.546875 L 12.546875 -15.6875 L 15.6875 -15.6875 L 15.6875 -25.09375 L 21.953125 -25.09375 L 21.953125 -12.546875 L 18.828125 -12.546875 L 18.828125 -9.40625 L 15.6875 -9.40625 L 15.6875 -6.28125 L 12.546875 -6.28125 L 12.546875 -3.140625 Z M 9.40625 -3.140625 "/></g></g></g><g fill="#fd0100" fill-opacity="1"><g transform="translate(112.436063, 64.993501)"><g><path d="M 0 -3.140625 L 0 -25.09375 L 21.953125 -25.09375 L 21.953125 -21.953125 L 6.28125 -21.953125 L 6.28125 -15.6875 L 18.828125 -15.6875 L 18.828125 -12.546875 L 6.28125 -12.546875 L 6.28125 -6.28125 L 21.953125 -6.28125 L 21.953125 -3.140625 Z M 0 -3.140625 "/></g></g></g><g fill="#fd0100" fill-opacity="1"><g transform="translate(137.535583, 64.993501)"><g><path d="M 0 -3.140625 L 0 -25.09375 L 18.828125 -25.09375 L 18.828125 -21.953125 L 21.953125 -21.953125 L 21.953125 -12.546875 L 15.6875 -12.546875 L 15.6875 -9.40625 L 18.828125 -9.40625 L 18.828125 -6.28125 L 21.953125 -6.28125 L 21.953125 -3.140625 L 12.546875 -3.140625 L 12.546875 -6.28125 L 9.40625 -6.28125 L 9.40625 -9.40625 L 6.28125 -9.40625 L 6.28125 -3.140625 Z M 6.28125 -12.546875 L 12.546875 -12.546875 L 12.546875 -15.6875 L 15.6875 -15.6875 L 15.6875 -21.953125 L 6.28125 -21.953125 Z M 6.28125 -12.546875 "/></g></g></g></svg>