<svg xmlns="http://www.w3.org/2000/svg" xmlns:xlink="http://www.w3.org/1999/xlink" width="500" zoomAndPan="magnify" viewBox="0 0 375 374.999991" height="500" preserveAspectRatio="xMidYMid meet" version="1.0"><defs><g/></defs><g fill="#ffffff" fill-opacity="1"><g transform="translate(48.890626, 156.74999)"><g><path d="M 51.238281 -20.640625 C 50.878906 -19.558594 50.761719 -18.601562 50.28125 -17.761719 C 49.800781 -16.679688 49.199219 -15.839844 48.480469 -15.121094 C 47.761719 -14.28125 46.921875 -13.800781 45.960938 -13.199219 C 45.121094 -12.601562 44.160156 -12.238281 43.199219 -11.761719 C 42.238281 -11.519531 41.28125 -11.160156 40.199219 -10.921875 C 39 -10.679688 37.921875 -10.800781 36.71875 -10.800781 C 35.519531 -10.800781 34.320312 -10.679688 33.238281 -10.800781 C 32.039062 -11.039062 30.960938 -11.519531 30 -11.878906 C 28.800781 -12.359375 27.839844 -12.960938 27 -13.558594 C 25.921875 -14.28125 25.078125 -15 24.480469 -15.839844 C 23.878906 -16.921875 23.519531 -17.878906 22.921875 -18.839844 C 22.441406 -19.921875 22.078125 -20.878906 21.601562 -21.960938 C 21.238281 -23.039062 20.761719 -24 20.519531 -25.078125 C 20.160156 -26.160156 19.921875 -27.238281 19.679688 -28.320312 C 19.558594 -29.519531 19.800781 -30.601562 19.679688 -31.679688 C 19.679688 -32.878906 19.441406 -33.960938 19.558594 -35.039062 C 19.558594 -36.121094 19.921875 -37.199219 20.160156 -38.398438 C 20.398438 -39.480469 20.519531 -40.558594 20.878906 -41.640625 C 21.238281 -42.71875 22.078125 -43.558594 22.558594 -44.640625 C 23.039062 -45.71875 23.398438 -46.800781 24.121094 -47.640625 C 24.839844 -48.601562 25.800781 -49.320312 26.761719 -50.039062 C 27.71875 -50.761719 28.679688 -51.359375 29.761719 -51.839844 C 30.71875 -52.320312 31.921875 -52.558594 33 -52.800781 C 34.199219 -53.039062 35.28125 -53.28125 36.480469 -53.160156 C 37.679688 -53.160156 38.761719 -52.921875 39.960938 -52.679688 C 41.039062 -52.441406 42.359375 -52.441406 43.441406 -51.960938 C 44.519531 -51.601562 45.480469 -50.761719 46.441406 -50.160156 C 47.28125 -49.679688 48.601562 -49.078125 49.800781 -48.359375 C 50.878906 -47.640625 51.960938 -46.679688 52.921875 -46.199219 C 54 -45.71875 54.960938 -45.480469 55.800781 -45.601562 C 56.761719 -45.839844 57.601562 -46.320312 58.441406 -47.039062 C 59.160156 -47.640625 59.878906 -48.359375 60.601562 -49.320312 C 61.679688 -50.519531 62.28125 -51.71875 62.28125 -52.800781 C 62.519531 -54 62.160156 -55.320312 60.960938 -56.398438 C 60.238281 -57.121094 59.160156 -57.601562 58.320312 -58.199219 C 57.480469 -58.800781 56.640625 -59.398438 55.679688 -60 C 54.71875 -60.480469 53.878906 -61.320312 52.921875 -61.679688 C 51.960938 -62.160156 50.878906 -62.28125 49.921875 -62.640625 C 48.839844 -63 47.878906 -63.359375 46.800781 -63.601562 C 45.71875 -63.839844 44.761719 -64.078125 43.679688 -64.199219 C 42.601562 -64.441406 41.519531 -64.441406 40.441406 -64.441406 C 39.359375 -64.558594 38.28125 -64.320312 37.199219 -64.320312 C 36.121094 -64.320312 35.039062 -64.558594 33.960938 -64.441406 C 32.878906 -64.320312 31.800781 -64.078125 30.839844 -63.960938 C 29.640625 -63.71875 28.679688 -63.359375 27.601562 -63.121094 C 26.398438 -62.761719 25.441406 -62.398438 24.359375 -62.039062 C 23.28125 -61.679688 22.199219 -61.441406 21.238281 -60.960938 C 20.160156 -60.480469 19.199219 -59.878906 18.359375 -59.28125 C 17.398438 -58.679688 16.441406 -57.960938 15.601562 -57.238281 C 14.761719 -56.519531 14.160156 -55.558594 13.441406 -54.71875 C 12.601562 -53.878906 11.878906 -53.160156 11.28125 -52.199219 C 10.679688 -51.238281 9.960938 -50.28125 9.480469 -49.320312 C 9.121094 -48.121094 8.878906 -47.039062 8.640625 -45.839844 C 8.28125 -44.761719 8.039062 -43.558594 7.800781 -42.480469 C 7.558594 -41.398438 7.320312 -40.199219 7.078125 -39.121094 C 6.960938 -37.921875 6.839844 -36.71875 6.71875 -35.640625 C 6.601562 -34.441406 6.238281 -33.359375 6.238281 -32.160156 C 6.121094 -30.960938 6.480469 -29.878906 6.480469 -28.679688 C 6.601562 -27.480469 6.480469 -26.398438 6.601562 -25.199219 C 6.71875 -24 6.960938 -22.921875 7.199219 -21.71875 C 7.558594 -20.640625 7.679688 -19.441406 8.039062 -18.359375 C 8.398438 -17.28125 8.878906 -16.199219 9.359375 -15.121094 C 9.71875 -14.039062 10.199219 -13.078125 10.800781 -12.121094 C 11.28125 -11.160156 11.761719 -10.199219 12.480469 -9.359375 C 13.078125 -8.519531 13.921875 -7.679688 14.640625 -6.960938 C 15.480469 -6.121094 16.199219 -5.398438 17.039062 -4.679688 C 17.878906 -3.960938 18.839844 -3.359375 19.800781 -2.761719 C 20.640625 -2.160156 21.71875 -1.800781 22.679688 -1.320312 C 23.640625 -0.839844 24.601562 -0.238281 25.679688 0.121094 C 26.761719 0.480469 27.839844 0.480469 28.921875 0.71875 C 30 0.960938 30.960938 1.441406 32.160156 1.558594 C 33.238281 1.679688 34.320312 1.679688 35.519531 1.800781 C 36.601562 1.800781 37.679688 1.441406 38.878906 1.320312 C 39.960938 1.199219 41.039062 1.320312 42.238281 1.078125 C 43.320312 0.839844 44.398438 0.601562 45.480469 0.359375 C 46.558594 0 47.519531 -0.601562 48.601562 -0.960938 C 49.558594 -1.441406 50.640625 -1.800781 51.71875 -2.28125 C 52.679688 -2.761719 53.640625 -3.238281 54.601562 -3.960938 C 55.558594 -4.558594 56.28125 -5.519531 57.121094 -6.238281 C 57.960938 -6.960938 58.921875 -7.441406 59.761719 -8.28125 C 60.480469 -9.121094 60.960938 -10.199219 61.558594 -11.160156 C 62.160156 -12 62.878906 -12.960938 63.359375 -13.921875 C 63.839844 -15 64.199219 -15.960938 64.679688 -17.039062 C 65.039062 -18.121094 65.398438 -19.078125 65.640625 -20.28125 C 66 -21.359375 66 -22.441406 66.121094 -23.519531 C 66.238281 -24.601562 66.480469 -25.800781 66.480469 -26.878906 C 66.601562 -27.960938 66.601562 -29.160156 66.480469 -30.359375 C 66.480469 -31.441406 66 -32.519531 65.398438 -33.480469 C 64.800781 -34.320312 64.078125 -35.160156 62.761719 -35.519531 C 61.921875 -35.878906 60.71875 -35.878906 59.398438 -35.878906 C 58.320312 -35.878906 57.238281 -35.878906 56.160156 -35.878906 C 55.078125 -36 54.121094 -36 53.039062 -36 C 51.960938 -36.121094 50.878906 -36.121094 49.921875 -36.121094 C 48.839844 -36.121094 47.761719 -36.359375 46.679688 -36.359375 C 45.71875 -36.359375 44.640625 -36.480469 43.558594 -36.480469 C 42.480469 -36.480469 41.398438 -36.359375 40.320312 -36.359375 C 39.359375 -36.359375 38.28125 -36.121094 37.199219 -36.121094 C 36.121094 -36 35.160156 -36.238281 33.960938 -36.121094 C 33.238281 -36.121094 32.878906 -34.921875 32.519531 -33.601562 C 32.160156 -32.519531 31.800781 -31.320312 31.679688 -30.601562 C 31.679688 -29.761719 31.679688 -28.558594 32.039062 -27.601562 C 32.28125 -26.519531 33 -25.800781 33.71875 -25.199219 C 34.558594 -24.71875 35.398438 -24.359375 36.480469 -24.238281 C 37.441406 -24.121094 38.519531 -24.238281 39.480469 -24.238281 C 40.679688 -24.238281 41.640625 -23.878906 42.601562 -23.878906 C 43.679688 -23.761719 44.640625 -23.640625 45.71875 -23.640625 C 46.679688 -23.640625 47.640625 -23.640625 48.839844 -23.640625 C 49.679688 -23.519531 50.761719 -23.761719 51.960938 -23.761719 C 51.839844 -22.679688 51.480469 -21.601562 51.238281 -20.640625 Z M 51.238281 -20.640625 "/></g></g></g><g fill="#ffffff" fill-opacity="1"><g transform="translate(121.490658, 156.74999)"><g><path d="M 24.238281 -10.078125 C 25.441406 -10.078125 26.640625 -10.199219 27.839844 -10.199219 C 29.039062 -10.199219 30.238281 -10.199219 31.320312 -10.199219 C 32.519531 -10.320312 33.71875 -10.199219 34.921875 -10.199219 C 35.761719 -10.320312 36.71875 -10.441406 37.679688 -10.441406 C 38.640625 -10.558594 39.601562 -10.441406 40.558594 -10.441406 C 41.640625 -10.558594 42.601562 -10.558594 43.320312 -10.558594 C 43.921875 -10.679688 44.519531 -10.199219 44.761719 -9.601562 C 45 -8.761719 45.359375 -7.441406 45.960938 -6 C 46.320312 -4.921875 47.160156 -3.71875 47.640625 -2.640625 C 48 -1.320312 48.839844 -0.71875 50.039062 -0.359375 C 51 0 52.199219 0.359375 53.519531 0.359375 C 54.71875 0.359375 55.921875 0.121094 57.121094 0.121094 C 58.800781 0.121094 60 -0.121094 60.839844 -0.601562 C 62.039062 -1.078125 62.398438 -2.039062 61.679688 -3.839844 C 61.320312 -4.679688 60.839844 -5.640625 60.359375 -6.839844 C 60 -7.800781 59.519531 -8.761719 59.039062 -9.839844 C 58.679688 -10.800781 58.441406 -11.878906 57.960938 -12.839844 C 57.601562 -13.921875 57.121094 -14.878906 56.761719 -15.839844 C 56.28125 -16.921875 55.921875 -17.878906 55.441406 -18.839844 C 55.078125 -19.921875 54.839844 -21 54.480469 -21.960938 C 54 -22.921875 53.398438 -23.878906 52.921875 -24.960938 C 52.558594 -25.921875 52.199219 -27.121094 51.839844 -28.078125 C 51.480469 -29.160156 51.238281 -30.238281 50.761719 -31.320312 C 50.398438 -32.398438 49.800781 -33.359375 49.320312 -34.320312 C 48.960938 -35.398438 48.601562 -36.480469 48.238281 -37.558594 C 47.761719 -38.640625 47.398438 -39.601562 46.921875 -40.679688 C 46.558594 -41.761719 45.960938 -42.71875 45.601562 -43.800781 C 45.238281 -44.761719 44.761719 -45.839844 44.28125 -46.921875 C 43.921875 -47.878906 43.679688 -49.078125 43.320312 -50.039062 C 42.960938 -51.121094 42.238281 -52.078125 41.761719 -53.160156 C 41.398438 -54.121094 41.039062 -55.199219 40.679688 -56.28125 C 40.199219 -57.359375 39.601562 -58.320312 39.238281 -59.28125 C 38.640625 -60.71875 38.28125 -61.921875 37.679688 -62.640625 C 36.71875 -63.601562 35.519531 -63.71875 34.199219 -63.839844 C 33.121094 -63.960938 31.921875 -63.960938 30.601562 -63.960938 C 29.640625 -63.839844 28.320312 -63.960938 26.878906 -63.121094 C 26.039062 -62.640625 25.078125 -61.800781 24.238281 -60.359375 C 23.761719 -59.398438 23.28125 -58.199219 22.921875 -56.761719 C 22.558594 -55.679688 22.078125 -54.71875 21.71875 -53.761719 C 21.238281 -52.679688 21.238281 -51.601562 20.878906 -50.519531 C 20.519531 -49.558594 19.921875 -48.601562 19.558594 -47.519531 C 19.078125 -46.558594 18.960938 -45.359375 18.601562 -44.398438 C 18.238281 -43.320312 17.640625 -42.359375 17.28125 -41.398438 C 16.921875 -40.320312 16.558594 -39.238281 16.199219 -38.28125 C 15.839844 -37.199219 15.601562 -36.121094 15.121094 -35.160156 C 14.761719 -34.078125 14.398438 -33 14.039062 -32.039062 C 13.679688 -30.960938 13.320312 -29.878906 12.960938 -28.921875 C 12.601562 -27.839844 12 -27 11.640625 -25.921875 C 11.28125 -24.839844 11.28125 -23.761719 10.921875 -22.679688 C 10.441406 -21.71875 10.078125 -20.640625 9.71875 -19.679688 C 9.359375 -18.601562 8.761719 -17.640625 8.398438 -16.679688 C 8.039062 -15.601562 7.921875 -14.519531 7.558594 -13.441406 C 7.199219 -12.480469 6.71875 -11.519531 6.359375 -10.441406 C 6.121094 -9.960938 5.640625 -8.878906 5.160156 -7.679688 C 4.800781 -6.71875 4.441406 -5.761719 4.199219 -4.800781 C 3.71875 -3.601562 3.480469 -2.398438 3.480469 -1.921875 C 3.238281 -0.121094 3.839844 0.238281 5.28125 0.238281 C 6.121094 0.238281 7.320312 0.121094 8.761719 0.238281 C 9.359375 0.238281 10.441406 0.238281 11.519531 0.121094 C 12.480469 0.121094 13.441406 0.121094 14.28125 -0.121094 C 15.359375 -0.359375 16.320312 -0.71875 16.679688 -1.441406 C 17.28125 -2.519531 17.640625 -3.480469 18 -4.320312 C 18.480469 -5.28125 18.839844 -6.238281 19.320312 -7.199219 C 19.800781 -8.160156 20.160156 -9.121094 20.640625 -10.199219 C 21.839844 -10.199219 23.160156 -10.078125 24.238281 -10.078125 Z M 25.078125 -26.039062 C 25.558594 -27.121094 26.28125 -28.078125 26.640625 -29.160156 C 27.121094 -30.238281 27.238281 -31.558594 27.71875 -32.640625 C 28.078125 -33.71875 28.558594 -34.800781 29.039062 -35.878906 C 29.519531 -36.960938 30.121094 -37.921875 30.601562 -39.121094 C 31.078125 -40.199219 31.320312 -41.398438 31.679688 -42.601562 C 32.28125 -41.640625 32.878906 -40.679688 33.359375 -39.71875 C 33.960938 -38.761719 34.320312 -37.800781 34.800781 -36.960938 C 35.28125 -36 35.761719 -35.039062 36.238281 -34.199219 C 36.71875 -33.238281 37.199219 -32.28125 37.679688 -31.320312 C 38.039062 -30.359375 38.28125 -29.28125 38.640625 -28.320312 C 39.121094 -27.359375 39.601562 -26.398438 39.960938 -25.441406 C 40.441406 -24.480469 41.039062 -23.519531 41.398438 -22.558594 C 40.199219 -22.558594 39 -22.441406 37.800781 -22.441406 C 36.71875 -22.441406 35.519531 -22.679688 34.320312 -22.679688 C 33.238281 -22.679688 32.039062 -22.558594 30.839844 -22.558594 C 29.761719 -22.558594 28.558594 -22.558594 27.359375 -22.558594 C 26.28125 -22.558594 24.960938 -22.558594 23.761719 -22.558594 C 24.238281 -23.640625 24.601562 -24.960938 25.078125 -26.039062 Z M 25.078125 -26.039062 "/></g></g></g><g fill="#ffffff" fill-opacity="1"><g transform="translate(187.010688, 156.74999)"><g><path d="M 21 -11.039062 C 21.121094 -12.121094 21.238281 -13.199219 21.359375 -14.398438 C 21.359375 -15.480469 21.238281 -16.679688 21.359375 -17.761719 C 21.480469 -18.960938 21.839844 -20.160156 21.960938 -21.238281 C 21.960938 -22.441406 22.078125 -23.519531 22.199219 -24.601562 C 22.320312 -26.519531 22.199219 -27.71875 22.320312 -27.839844 C 22.679688 -27.238281 23.28125 -26.398438 23.640625 -25.441406 C 24 -24.359375 24.359375 -23.398438 24.71875 -22.921875 C 25.078125 -21.960938 25.558594 -21 25.921875 -20.039062 C 26.398438 -19.078125 26.640625 -18 27.121094 -17.039062 C 27.480469 -16.078125 28.078125 -15.238281 28.558594 -14.28125 C 28.921875 -13.320312 29.398438 -12.359375 29.878906 -11.519531 C 30.359375 -10.558594 30.480469 -9.480469 30.960938 -8.519531 C 31.441406 -7.558594 32.160156 -6.839844 32.640625 -5.878906 C 33.121094 -4.921875 33.480469 -3.960938 33.960938 -3 C 34.558594 -2.039062 35.519531 -0.960938 36.71875 -0.238281 C 37.921875 0.480469 39.359375 0.71875 40.320312 0.71875 C 41.398438 0.71875 42.839844 0.359375 44.039062 -0.480469 C 45.238281 -1.199219 46.320312 -2.28125 47.039062 -3.121094 C 47.519531 -3.839844 47.640625 -4.800781 47.878906 -5.640625 C 48 -6.480469 48.359375 -7.320312 48.71875 -8.160156 C 49.078125 -9.121094 49.320312 -10.320312 49.679688 -11.28125 C 50.039062 -12.359375 50.640625 -13.320312 51 -14.398438 C 51.480469 -15.359375 52.078125 -16.320312 52.441406 -17.398438 C 52.921875 -18.480469 53.160156 -19.558594 53.640625 -20.519531 C 54 -21.601562 54.480469 -22.558594 54.839844 -23.640625 C 55.320312 -24.601562 55.800781 -25.558594 56.28125 -26.640625 C 56.640625 -27.71875 57 -28.921875 57.359375 -29.878906 C 58.679688 -28.921875 57.601562 -28.441406 57.71875 -26.519531 C 57.71875 -25.558594 57.71875 -24.359375 57.839844 -23.28125 C 57.839844 -22.078125 57.960938 -21 57.960938 -19.921875 C 58.078125 -18.71875 57.960938 -17.640625 57.960938 -16.679688 C 57.960938 -15.601562 58.199219 -14.398438 58.199219 -13.078125 C 58.199219 -12 58.078125 -10.800781 58.078125 -9.601562 C 58.078125 -8.28125 58.199219 -7.078125 58.199219 -6 C 58.320312 -4.679688 58.320312 -3.480469 58.441406 -2.398438 C 58.558594 -1.078125 59.28125 -0.359375 60.238281 0 C 61.078125 0.480469 62.160156 0.601562 63.359375 0.480469 C 64.441406 0.480469 65.519531 0.359375 66.480469 0.238281 C 68.039062 0.121094 69.121094 0.121094 69.71875 -0.238281 C 70.441406 -0.71875 70.679688 -1.558594 70.679688 -3.238281 C 70.558594 -4.199219 70.800781 -5.28125 70.679688 -6.359375 C 70.679688 -7.441406 70.441406 -8.519531 70.441406 -9.601562 C 70.441406 -10.558594 70.320312 -11.640625 70.320312 -12.71875 C 70.320312 -13.800781 70.441406 -14.878906 70.441406 -15.960938 C 70.320312 -16.921875 70.199219 -18 70.078125 -19.078125 C 70.078125 -20.160156 70.199219 -21.238281 70.199219 -22.320312 C 70.199219 -23.398438 70.199219 -24.359375 70.199219 -25.441406 C 70.078125 -26.519531 69.839844 -27.601562 69.839844 -28.679688 C 69.839844 -29.761719 69.960938 -30.839844 69.960938 -31.921875 C 69.960938 -32.878906 69.960938 -33.960938 69.839844 -35.039062 C 69.839844 -36.121094 69.601562 -37.199219 69.601562 -38.28125 C 69.601562 -39.238281 69.480469 -40.320312 69.480469 -41.398438 C 69.480469 -42.480469 69.601562 -43.558594 69.480469 -44.519531 C 69.480469 -45.601562 69.601562 -46.679688 69.480469 -47.761719 C 69.480469 -48.71875 69.238281 -49.800781 69.121094 -50.878906 C 69.121094 -51.960938 69.359375 -53.039062 69.359375 -54 C 69.359375 -55.199219 69.121094 -56.160156 69.121094 -57.238281 C 69 -58.320312 69 -59.398438 69 -60.359375 C 69 -61.679688 68.398438 -62.519531 67.320312 -62.878906 C 66.601562 -63.238281 65.519531 -63.480469 64.199219 -63.480469 C 63.238281 -63.601562 62.160156 -63.601562 61.078125 -63.71875 C 59.640625 -63.601562 58.558594 -63.121094 57.71875 -62.761719 C 56.519531 -62.160156 55.679688 -61.320312 55.199219 -60.359375 C 54.71875 -59.28125 54.601562 -58.078125 54.238281 -57 C 53.761719 -55.921875 53.160156 -54.960938 52.800781 -53.878906 C 52.441406 -52.800781 52.078125 -51.71875 51.71875 -50.640625 C 51.238281 -49.558594 50.761719 -48.601562 50.28125 -47.519531 C 49.921875 -46.441406 49.679688 -45.359375 49.320312 -44.28125 C 48.960938 -43.199219 48.359375 -42.238281 48 -41.160156 C 47.640625 -40.078125 47.28125 -39 46.921875 -37.921875 C 46.441406 -36.839844 45.839844 -35.878906 45.359375 -34.800781 C 45 -33.839844 44.878906 -32.640625 44.519531 -31.558594 C 44.039062 -30.480469 43.441406 -29.519531 43.078125 -28.441406 C 42.601562 -27.238281 41.878906 -26.398438 41.039062 -25.078125 C 40.441406 -24.238281 39.839844 -23.039062 39 -21.71875 C 38.519531 -22.679688 38.160156 -23.761719 37.800781 -24.71875 C 37.320312 -25.800781 37.078125 -26.878906 36.601562 -27.839844 C 36.238281 -28.800781 35.640625 -29.761719 35.28125 -30.839844 C 34.800781 -31.800781 34.558594 -32.878906 34.199219 -33.839844 C 33.71875 -34.921875 33.359375 -35.878906 32.878906 -36.839844 C 32.519531 -37.921875 31.800781 -38.761719 31.441406 -39.839844 C 30.960938 -40.800781 30.480469 -41.761719 30.121094 -42.71875 C 29.640625 -43.800781 29.519531 -44.878906 29.039062 -45.839844 C 28.679688 -46.921875 27.960938 -47.761719 27.601562 -48.839844 C 27.121094 -49.800781 26.761719 -50.878906 26.28125 -51.839844 C 25.921875 -52.800781 25.558594 -53.878906 25.199219 -54.960938 C 24.839844 -55.800781 24.601562 -56.878906 24.238281 -57.71875 C 24 -58.679688 23.640625 -59.640625 23.039062 -60.480469 C 22.558594 -61.199219 21.839844 -62.039062 20.878906 -62.519531 C 20.160156 -63 19.078125 -63 18 -63.238281 C 17.039062 -63.359375 16.078125 -63.480469 15 -63.359375 C 13.441406 -63.601562 12.359375 -63.359375 11.640625 -62.878906 C 10.679688 -62.398438 10.320312 -61.558594 10.078125 -60 C 9.839844 -59.039062 9.839844 -57.839844 9.839844 -56.398438 C 9.71875 -55.441406 9.71875 -54.238281 9.71875 -52.921875 C 9.71875 -51.839844 9.71875 -50.640625 9.71875 -49.558594 C 9.601562 -48.480469 9.601562 -47.398438 9.601562 -46.320312 C 9.601562 -45.238281 9.238281 -44.160156 9.238281 -43.199219 C 9.238281 -42 9.359375 -40.921875 9.359375 -39.839844 C 9.359375 -38.761719 9.359375 -37.800781 9.238281 -36.71875 C 9.238281 -35.640625 8.878906 -34.558594 8.878906 -33.480469 C 8.761719 -32.398438 8.878906 -31.320312 8.878906 -30.238281 C 8.761719 -29.160156 8.761719 -28.078125 8.761719 -27 C 8.640625 -25.921875 8.761719 -24.839844 8.761719 -23.761719 C 8.761719 -22.679688 8.761719 -21.601562 8.761719 -20.519531 C 8.640625 -19.441406 8.519531 -18.359375 8.519531 -17.28125 C 8.519531 -16.199219 8.28125 -15.121094 8.28125 -13.921875 C 8.28125 -12.960938 8.519531 -11.761719 8.519531 -10.679688 C 8.519531 -9.601562 8.519531 -8.519531 8.519531 -7.441406 C 8.519531 -6.71875 8.28125 -5.28125 8.28125 -3.960938 C 8.160156 -2.398438 8.28125 -0.960938 8.640625 -0.480469 C 9.121094 0.238281 10.078125 0.238281 11.039062 0.238281 C 12 0.238281 13.078125 0.121094 13.800781 0.238281 C 14.398438 0.238281 15.839844 0.238281 17.039062 0.238281 C 18.480469 0.238281 19.921875 0.238281 20.28125 -0.480469 C 20.761719 -1.320312 20.640625 -2.640625 20.761719 -3.960938 C 20.761719 -5.28125 20.878906 -6.601562 21 -7.558594 C 21 -8.519531 20.878906 -9.71875 21 -11.039062 Z M 21 -11.039062 "/></g></g></g><g fill="#ffffff" fill-opacity="1"><g transform="translate(266.090731, 156.74999)"><g><path d="M 25.078125 -50.28125 C 26.160156 -50.28125 27.238281 -50.28125 28.320312 -50.28125 C 29.519531 -50.28125 30.601562 -50.039062 31.679688 -50.039062 C 32.761719 -50.039062 33.960938 -50.28125 35.039062 -50.28125 C 36.121094 -50.28125 37.199219 -50.28125 38.28125 -50.28125 C 39.480469 -50.28125 40.558594 -50.039062 41.640625 -50.039062 C 42.71875 -50.039062 43.921875 -50.160156 44.878906 -50.160156 C 46.078125 -50.160156 47.160156 -50.28125 48.238281 -50.28125 C 49.558594 -50.28125 50.640625 -50.28125 51.480469 -50.761719 C 52.441406 -51.238281 52.921875 -52.078125 53.398438 -53.160156 C 53.761719 -54.121094 54 -55.078125 54.121094 -56.398438 C 54.121094 -57.359375 54.359375 -58.320312 54.359375 -59.28125 C 54.359375 -60.238281 54.238281 -61.199219 53.519531 -61.800781 C 53.039062 -62.28125 52.199219 -62.640625 51 -62.878906 C 50.160156 -63 49.320312 -63.238281 48.121094 -63.238281 C 47.160156 -63.238281 45.960938 -63 44.761719 -63 C 43.679688 -63 42.480469 -63.121094 41.28125 -63 C 40.199219 -63 39 -63.121094 37.921875 -63.121094 C 36.71875 -63.121094 35.519531 -62.878906 34.441406 -62.761719 C 33.238281 -62.761719 32.039062 -62.761719 31.078125 -62.761719 C 30.121094 -62.761719 29.039062 -62.640625 27.960938 -62.761719 C 27 -62.761719 25.921875 -62.640625 24.839844 -62.640625 C 23.878906 -62.761719 22.800781 -62.761719 21.71875 -62.761719 C 20.761719 -62.878906 19.679688 -63.121094 18.601562 -63.238281 C 17.640625 -63.238281 16.558594 -63 15.480469 -63 C 14.519531 -63.121094 13.441406 -63.238281 12.359375 -63.238281 C 11.398438 -63.238281 10.441406 -63 9.480469 -63 C 9.359375 -61.921875 9.121094 -60.960938 9.121094 -59.878906 C 9 -58.800781 9.238281 -57.71875 9.238281 -56.640625 C 9.238281 -55.558594 9 -54.480469 9 -53.398438 C 9 -52.320312 9.121094 -51.238281 9 -50.160156 C 9 -48.960938 9 -47.878906 9 -46.800781 C 9 -45.71875 9 -44.640625 9 -43.558594 C 9 -42.480469 8.878906 -41.398438 8.761719 -40.320312 C 8.761719 -39.238281 9.121094 -38.160156 9.121094 -37.078125 C 9.121094 -36 8.761719 -34.921875 8.761719 -33.839844 C 8.761719 -32.761719 9 -31.679688 8.878906 -30.601562 C 8.878906 -29.519531 8.761719 -28.558594 8.761719 -27.480469 C 8.761719 -26.398438 8.761719 -25.320312 8.761719 -24.238281 C 8.761719 -23.160156 8.761719 -22.078125 8.761719 -21 C 8.761719 -19.921875 8.761719 -18.839844 8.761719 -17.761719 C 8.761719 -16.679688 8.761719 -15.601562 8.761719 -14.519531 C 8.761719 -13.441406 8.519531 -12.359375 8.519531 -11.28125 C 8.398438 -10.199219 8.761719 -9.121094 8.761719 -8.039062 C 8.761719 -6.960938 8.761719 -5.878906 8.761719 -4.800781 C 8.761719 -4.078125 9.238281 -2.878906 10.078125 -2.039062 C 11.039062 -1.078125 12.121094 -0.601562 12.960938 -0.601562 C 14.039062 -0.601562 15.121094 -0.359375 16.320312 -0.359375 C 17.398438 -0.359375 18.480469 -0.121094 19.679688 -0.121094 C 20.761719 -0.121094 21.839844 -0.121094 23.039062 -0.121094 C 24.121094 0 25.199219 -0.121094 26.398438 -0.121094 C 27.480469 -0.121094 28.679688 0.121094 29.761719 0.121094 C 30.839844 0.238281 32.039062 0.121094 33.121094 0.121094 C 34.320312 0.238281 35.398438 0 36.480469 0 C 37.679688 0 38.761719 0 39.839844 0 C 41.039062 0 42.121094 0.238281 43.199219 0.238281 C 44.398438 0.238281 45.480469 0.121094 46.558594 0.121094 C 47.761719 0.121094 48.839844 0.121094 49.921875 0 C 51.238281 0 52.078125 -0.480469 52.679688 -1.320312 C 53.28125 -2.039062 53.519531 -3.121094 53.398438 -4.320312 C 53.160156 -5.28125 52.921875 -6.480469 52.320312 -7.441406 C 51.71875 -8.160156 51.238281 -9.359375 50.640625 -10.441406 C 50.039062 -11.640625 49.320312 -12.480469 48.238281 -12.601562 C 47.28125 -12.71875 46.320312 -12.71875 45.121094 -12.71875 C 44.160156 -12.71875 43.078125 -12.71875 42 -12.71875 C 40.921875 -12.71875 39.839844 -12.960938 38.878906 -12.960938 C 37.800781 -12.960938 36.71875 -12.71875 35.761719 -12.601562 C 34.679688 -12.601562 33.601562 -12.839844 32.519531 -12.839844 C 31.441406 -12.839844 30.359375 -12.71875 29.519531 -12.71875 C 28.441406 -12.839844 27.480469 -12.839844 26.640625 -12.839844 C 25.558594 -12.839844 24.601562 -12.71875 23.761719 -12.71875 C 21.960938 -12.71875 21.839844 -11.761719 20.761719 -12.71875 C 19.441406 -14.160156 20.640625 -14.28125 20.519531 -16.558594 C 20.519531 -17.640625 20.398438 -18.960938 20.398438 -20.398438 C 20.519531 -21.960938 20.039062 -22.441406 20.519531 -24.480469 C 21.480469 -24.480469 22.558594 -24.359375 23.761719 -24.359375 C 24.839844 -24.359375 25.921875 -24.480469 27 -24.480469 C 28.078125 -24.480469 29.28125 -24.359375 30.359375 -24.359375 C 31.441406 -24.359375 32.519531 -24.601562 33.601562 -24.601562 C 34.800781 -24.601562 35.878906 -24.359375 36.839844 -24.359375 C 38.160156 -24.359375 39.238281 -24.359375 40.199219 -24.359375 C 41.519531 -24.359375 42.601562 -24.71875 43.441406 -24.960938 C 44.761719 -25.199219 45.839844 -25.558594 46.441406 -26.28125 C 47.039062 -27.121094 47.398438 -28.199219 47.519531 -29.519531 C 47.519531 -30.480469 47.160156 -31.558594 47.039062 -32.761719 C 46.921875 -33.839844 46.921875 -34.921875 46.679688 -36.121094 C 45.839844 -36.238281 44.761719 -36.359375 43.558594 -36.359375 C 42.601562 -36.359375 41.640625 -36.121094 40.558594 -36.238281 C 39.480469 -36.238281 38.519531 -36.601562 37.441406 -36.601562 C 36.359375 -36.601562 35.398438 -36.359375 34.320312 -36.480469 C 33.359375 -36.480469 32.28125 -36.601562 31.320312 -36.601562 C 30.238281 -36.71875 29.160156 -36.71875 28.320312 -36.71875 C 27.121094 -36.839844 25.800781 -37.078125 24.71875 -37.078125 C 22.679688 -37.078125 22.320312 -35.640625 21 -36.960938 C 19.679688 -38.160156 21.121094 -38.761719 21 -40.679688 C 21 -41.878906 21 -43.199219 21 -44.398438 C 21 -45.601562 21 -46.199219 21.121094 -47.28125 C 21.359375 -48 21.601562 -48.839844 21.839844 -50.160156 C 22.921875 -50.160156 23.878906 -50.28125 25.078125 -50.28125 Z M 25.078125 -50.28125 "/></g></g></g><g fill="#ff2768" fill-opacity="1"><g transform="translate(57.234376, 276.749982)"><g><path d="M 63.839844 -36.960938 C 63.71875 -38.160156 63.480469 -39.238281 63.359375 -40.320312 C 63.121094 -41.398438 63.121094 -42.601562 62.761719 -43.679688 C 62.398438 -44.761719 61.800781 -45.839844 61.441406 -46.921875 C 61.078125 -48.121094 60.71875 -49.199219 60.238281 -50.28125 C 59.878906 -51.359375 59.28125 -52.441406 58.800781 -53.398438 C 58.199219 -54.480469 57.480469 -55.441406 56.761719 -56.398438 C 56.039062 -57.238281 55.199219 -58.078125 54.238281 -58.921875 C 53.398438 -59.519531 52.441406 -60.238281 51.359375 -60.839844 C 50.28125 -61.320312 49.441406 -62.039062 48.238281 -62.519531 C 47.160156 -62.878906 45.960938 -63 44.878906 -63.359375 C 43.679688 -63.601562 42.601562 -63.839844 41.398438 -63.960938 C 40.199219 -64.199219 39.121094 -64.679688 37.921875 -64.679688 C 36.71875 -64.800781 35.519531 -64.679688 34.320312 -64.679688 C 33.238281 -64.558594 32.039062 -64.558594 30.839844 -64.441406 C 29.640625 -64.199219 28.558594 -63.839844 27.359375 -63.601562 C 26.28125 -63.359375 25.199219 -63 24 -62.640625 C 22.921875 -62.28125 21.839844 -61.921875 20.761719 -61.441406 C 19.679688 -60.960938 18.601562 -60.480469 17.640625 -59.878906 C 16.558594 -59.160156 15.839844 -58.199219 15 -57.480469 C 14.039062 -56.640625 13.320312 -55.800781 12.601562 -54.839844 C 11.878906 -54 11.160156 -53.039062 10.558594 -51.960938 C 10.078125 -51 9.601562 -49.921875 9.238281 -48.71875 C 8.878906 -47.640625 8.640625 -46.441406 8.28125 -45.238281 C 7.921875 -44.039062 7.558594 -42.839844 7.320312 -41.761719 C 7.078125 -40.558594 6.960938 -39.359375 6.839844 -38.160156 C 6.601562 -36.839844 6.238281 -35.761719 6.238281 -34.441406 C 6.121094 -33.238281 6.359375 -32.039062 6.359375 -30.839844 C 6.359375 -29.640625 6.359375 -28.441406 6.480469 -27.121094 C 6.601562 -25.921875 6.839844 -24.71875 7.078125 -23.519531 C 7.320312 -22.320312 7.558594 -21.121094 7.800781 -20.039062 C 8.160156 -18.839844 8.640625 -17.761719 9.121094 -16.679688 C 9.480469 -15.601562 9.960938 -14.398438 10.558594 -13.441406 C 11.039062 -12.359375 11.640625 -11.28125 12.238281 -10.320312 C 12.960938 -9.359375 13.800781 -8.398438 14.519531 -7.558594 C 15.359375 -6.601562 16.199219 -5.761719 17.039062 -5.039062 C 18 -4.199219 18.960938 -3.601562 20.039062 -3 C 21 -2.28125 22.078125 -1.800781 23.160156 -1.320312 C 24.238281 -0.71875 25.320312 -0.359375 26.398438 0 C 27.601562 0.359375 28.800781 0.601562 29.878906 0.839844 C 31.078125 1.078125 32.28125 1.199219 33.480469 1.320312 C 34.679688 1.320312 35.878906 1.320312 36.960938 1.199219 C 38.160156 1.199219 39.359375 0.960938 40.558594 0.71875 C 41.761719 0.480469 42.839844 0.359375 44.039062 0 C 45.121094 -0.359375 46.320312 -0.601562 47.398438 -1.199219 C 48.480469 -1.679688 49.441406 -2.398438 50.519531 -3.121094 C 51.480469 -3.71875 52.441406 -4.441406 53.28125 -5.28125 C 54.121094 -6.121094 54.960938 -6.960938 55.800781 -7.921875 C 56.519531 -8.761719 57.121094 -9.71875 57.839844 -10.679688 C 58.441406 -11.640625 59.039062 -12.71875 59.519531 -13.679688 C 60.121094 -14.640625 60.71875 -15.71875 61.199219 -16.679688 C 61.558594 -17.761719 62.039062 -18.839844 62.398438 -19.921875 C 62.761719 -21 63 -22.199219 63.121094 -23.28125 C 63.359375 -24.480469 63.601562 -25.558594 63.71875 -26.761719 C 63.960938 -27.839844 63.960938 -29.039062 63.960938 -30.238281 C 63.960938 -31.320312 63.960938 -32.519531 63.960938 -33.601562 C 63.839844 -34.800781 63.839844 -35.878906 63.839844 -36.960938 Z M 20.519531 -35.398438 C 20.640625 -36.839844 20.761719 -38.160156 21 -39.480469 C 21.121094 -40.921875 21.601562 -42.238281 21.960938 -43.558594 C 22.320312 -44.640625 22.558594 -45.71875 23.160156 -46.679688 C 23.878906 -47.640625 24.71875 -48.480469 25.558594 -49.199219 C 26.398438 -49.921875 27.359375 -50.640625 28.320312 -51.238281 C 29.398438 -51.71875 30.480469 -52.078125 31.558594 -52.441406 C 32.640625 -52.679688 33.71875 -52.921875 34.921875 -53.039062 C 36 -53.039062 37.078125 -52.800781 38.160156 -52.558594 C 39.238281 -52.199219 40.199219 -51.71875 41.28125 -51.238281 C 42.238281 -50.640625 43.199219 -50.039062 43.921875 -49.320312 C 44.761719 -48.601562 45.480469 -47.640625 46.078125 -46.679688 C 46.679688 -45.839844 47.28125 -44.878906 47.640625 -43.800781 C 48 -42.71875 48.480469 -41.519531 48.71875 -40.441406 C 49.078125 -39.238281 49.320312 -38.160156 49.441406 -36.960938 C 49.679688 -35.878906 49.800781 -34.679688 49.800781 -33.480469 C 49.921875 -32.28125 49.921875 -31.078125 49.800781 -30 C 49.679688 -28.800781 49.679688 -27.601562 49.441406 -26.398438 C 49.199219 -25.320312 48.960938 -24.121094 48.601562 -23.039062 C 48.238281 -21.960938 47.761719 -20.878906 47.28125 -19.800781 C 46.679688 -18.359375 45.839844 -17.398438 45.121094 -16.320312 C 44.160156 -15.238281 43.320312 -14.160156 42.238281 -13.441406 C 41.160156 -12.71875 39.839844 -12.121094 38.519531 -11.761719 C 37.320312 -11.519531 36 -11.398438 34.558594 -11.398438 C 33.359375 -11.519531 32.28125 -11.761719 31.320312 -12 C 30.121094 -12.359375 29.160156 -12.71875 28.199219 -13.320312 C 27.238281 -13.921875 26.519531 -14.640625 25.800781 -15.480469 C 25.078125 -16.320312 24.480469 -17.28125 24 -18.238281 C 23.398438 -19.199219 22.921875 -20.160156 22.558594 -21.238281 C 22.199219 -22.320312 21.960938 -23.398438 21.601562 -24.601562 C 21.359375 -25.679688 21.121094 -26.878906 20.878906 -27.960938 C 20.640625 -29.160156 20.519531 -30.238281 20.28125 -31.320312 C 20.398438 -32.761719 20.398438 -34.078125 20.519531 -35.398438 Z M 20.519531 -35.398438 "/></g></g></g><g fill="#ff2768" fill-opacity="1"><g transform="translate(127.674404, 276.749982)"><g><path d="M 31.320312 -24.71875 C 30.960938 -25.558594 30.71875 -26.761719 30.359375 -27.839844 C 30 -28.921875 29.519531 -29.878906 29.160156 -30.960938 C 28.800781 -32.039062 28.800781 -33.238281 28.558594 -34.320312 C 28.078125 -35.398438 27.71875 -36.480469 27.359375 -37.441406 C 27 -38.398438 26.519531 -39.359375 26.039062 -40.558594 C 25.679688 -41.519531 25.441406 -42.601562 24.960938 -43.679688 C 24.601562 -44.761719 24 -45.71875 23.640625 -46.800781 C 23.160156 -47.878906 22.800781 -48.960938 22.441406 -49.921875 C 21.960938 -51 21.480469 -52.078125 21.121094 -53.160156 C 20.761719 -54.121094 20.398438 -55.199219 20.039062 -56.28125 C 19.558594 -57.359375 19.199219 -58.441406 18.71875 -59.398438 C 18.238281 -60.480469 18.121094 -61.679688 17.640625 -62.640625 C 17.398438 -63.238281 16.199219 -63.480469 14.878906 -63.480469 C 13.921875 -63.480469 12.960938 -63.601562 11.878906 -63.601562 C 10.800781 -63.480469 9.71875 -63.121094 9 -63.121094 C 7.558594 -63.238281 6.359375 -63.238281 5.398438 -63 C 4.199219 -62.519531 3.238281 -61.921875 3.359375 -60.359375 C 3.359375 -59.761719 3.960938 -58.320312 4.441406 -56.878906 C 4.921875 -55.441406 5.640625 -54 5.761719 -53.519531 C 6.238281 -52.441406 6.601562 -51.359375 6.960938 -50.28125 C 7.441406 -49.199219 7.800781 -48.238281 8.160156 -47.160156 C 8.640625 -46.078125 9.121094 -45.121094 9.601562 -44.039062 C 9.960938 -42.960938 10.078125 -41.878906 10.558594 -40.800781 C 10.921875 -39.71875 11.519531 -38.761719 11.878906 -37.679688 C 12.359375 -36.71875 12.601562 -35.640625 13.078125 -34.558594 C 13.441406 -33.480469 13.921875 -32.519531 14.28125 -31.441406 C 14.761719 -30.359375 15.359375 -29.398438 15.71875 -28.320312 C 16.078125 -27.359375 16.558594 -26.28125 16.921875 -25.199219 C 17.398438 -24.238281 17.761719 -23.160156 18.121094 -22.078125 C 18.601562 -21 19.078125 -20.039062 19.558594 -19.078125 C 19.921875 -18 20.28125 -16.921875 20.640625 -15.839844 C 21.121094 -14.878906 21.601562 -13.800781 21.960938 -12.71875 C 22.441406 -11.761719 22.679688 -10.679688 23.039062 -9.601562 C 23.519531 -8.519531 23.878906 -7.558594 24.359375 -6.480469 C 24.71875 -5.398438 25.199219 -4.441406 25.558594 -3.359375 C 26.039062 -2.160156 26.640625 -1.441406 27.359375 -0.960938 C 28.078125 -0.480469 29.039062 0 30.238281 0.121094 C 31.078125 0.238281 32.160156 -0.121094 33.359375 -0.121094 C 34.558594 -0.121094 35.640625 -0.121094 36.480469 -0.238281 C 37.800781 -0.480469 38.640625 -0.960938 39.359375 -1.679688 C 40.078125 -2.398438 40.679688 -3.121094 41.160156 -4.320312 C 41.519531 -5.28125 41.761719 -6.359375 42.121094 -7.441406 C 42.601562 -8.398438 42.839844 -9.480469 43.320312 -10.558594 C 43.679688 -11.519531 44.160156 -12.601562 44.519531 -13.679688 C 44.878906 -14.640625 45.238281 -15.71875 45.601562 -16.800781 C 45.960938 -17.878906 46.320312 -18.839844 46.679688 -19.921875 C 47.039062 -21 47.640625 -21.960938 48 -23.039062 C 48.359375 -24.121094 48.601562 -25.199219 48.960938 -26.160156 C 49.320312 -27.238281 49.558594 -28.320312 49.921875 -29.398438 C 50.28125 -30.480469 50.761719 -31.441406 51.121094 -32.519531 C 51.480469 -33.601562 51.960938 -34.558594 52.320312 -35.640625 C 52.679688 -36.71875 52.921875 -37.800781 53.28125 -38.761719 C 53.640625 -39.839844 53.878906 -40.921875 54.238281 -42 C 54.601562 -43.078125 55.078125 -44.039062 55.441406 -45.121094 C 55.800781 -46.078125 56.28125 -47.160156 56.640625 -48.121094 C 57 -49.199219 57.359375 -50.28125 57.71875 -51.238281 C 58.078125 -52.320312 58.441406 -53.398438 58.800781 -54.480469 C 59.160156 -55.441406 59.398438 -56.640625 59.761719 -57.601562 C 60.238281 -58.921875 60.601562 -60 60.71875 -60.71875 C 60.960938 -62.519531 60.359375 -63 59.398438 -63.121094 C 58.558594 -63.359375 57.359375 -63.359375 56.039062 -63.359375 C 54.839844 -63.359375 53.761719 -63.359375 52.679688 -63.359375 C 51.601562 -63.238281 50.398438 -63.121094 49.441406 -62.640625 C 48.601562 -62.160156 47.761719 -61.441406 46.921875 -60.359375 C 46.441406 -59.519531 45.960938 -58.558594 45.480469 -57.359375 C 45.359375 -56.878906 45.121094 -55.800781 44.761719 -54.71875 C 44.28125 -53.640625 43.921875 -52.558594 43.800781 -52.078125 C 43.441406 -51.121094 42.960938 -50.160156 42.71875 -49.199219 C 42.359375 -48.238281 41.878906 -47.28125 41.640625 -46.199219 C 41.28125 -45.238281 41.039062 -44.28125 40.679688 -43.199219 C 40.441406 -42.238281 40.078125 -41.28125 39.839844 -40.199219 C 39.480469 -39.238281 39.359375 -38.160156 39.121094 -37.199219 C 38.761719 -36.121094 38.28125 -35.28125 37.921875 -34.199219 C 37.558594 -33.238281 37.199219 -32.28125 36.839844 -31.320312 C 36.480469 -30.480469 36.121094 -29.28125 35.761719 -28.078125 C 35.398438 -26.878906 35.398438 -25.679688 35.039062 -24.71875 C 34.441406 -23.039062 33.71875 -21.71875 33.121094 -21.839844 C 32.761719 -21.839844 32.039062 -23.039062 31.320312 -24.71875 Z M 31.320312 -24.71875 "/></g></g></g><g fill="#ff2768" fill-opacity="1"><g transform="translate(192.114433, 276.749982)"><g><path d="M 25.078125 -50.28125 C 26.160156 -50.28125 27.238281 -50.28125 28.320312 -50.28125 C 29.519531 -50.28125 30.601562 -50.039062 31.679688 -50.039062 C 32.761719 -50.039062 33.960938 -50.28125 35.039062 -50.28125 C 36.121094 -50.28125 37.199219 -50.28125 38.28125 -50.28125 C 39.480469 -50.28125 40.558594 -50.039062 41.640625 -50.039062 C 42.71875 -50.039062 43.921875 -50.160156 44.878906 -50.160156 C 46.078125 -50.160156 47.160156 -50.28125 48.238281 -50.28125 C 49.558594 -50.28125 50.640625 -50.28125 51.480469 -50.761719 C 52.441406 -51.238281 52.921875 -52.078125 53.398438 -53.160156 C 53.761719 -54.121094 54 -55.078125 54.121094 -56.398438 C 54.121094 -57.359375 54.359375 -58.320312 54.359375 -59.28125 C 54.359375 -60.238281 54.238281 -61.199219 53.519531 -61.800781 C 53.039062 -62.28125 52.199219 -62.640625 51 -62.878906 C 50.160156 -63 49.320312 -63.238281 48.121094 -63.238281 C 47.160156 -63.238281 45.960938 -63 44.761719 -63 C 43.679688 -63 42.480469 -63.121094 41.28125 -63 C 40.199219 -63 39 -63.121094 37.921875 -63.121094 C 36.71875 -63.121094 35.519531 -62.878906 34.441406 -62.761719 C 33.238281 -62.761719 32.039062 -62.761719 31.078125 -62.761719 C 30.121094 -62.761719 29.039062 -62.640625 27.960938 -62.761719 C 27 -62.761719 25.921875 -62.640625 24.839844 -62.640625 C 23.878906 -62.761719 22.800781 -62.761719 21.71875 -62.761719 C 20.761719 -62.878906 19.679688 -63.121094 18.601562 -63.238281 C 17.640625 -63.238281 16.558594 -63 15.480469 -63 C 14.519531 -63.121094 13.441406 -63.238281 12.359375 -63.238281 C 11.398438 -63.238281 10.441406 -63 9.480469 -63 C 9.359375 -61.921875 9.121094 -60.960938 9.121094 -59.878906 C 9 -58.800781 9.238281 -57.71875 9.238281 -56.640625 C 9.238281 -55.558594 9 -54.480469 9 -53.398438 C 9 -52.320312 9.121094 -51.238281 9 -50.160156 C 9 -48.960938 9 -47.878906 9 -46.800781 C 9 -45.71875 9 -44.640625 9 -43.558594 C 9 -42.480469 8.878906 -41.398438 8.761719 -40.320312 C 8.761719 -39.238281 9.121094 -38.160156 9.121094 -37.078125 C 9.121094 -36 8.761719 -34.921875 8.761719 -33.839844 C 8.761719 -32.761719 9 -31.679688 8.878906 -30.601562 C 8.878906 -29.519531 8.761719 -28.558594 8.761719 -27.480469 C 8.761719 -26.398438 8.761719 -25.320312 8.761719 -24.238281 C 8.761719 -23.160156 8.761719 -22.078125 8.761719 -21 C 8.761719 -19.921875 8.761719 -18.839844 8.761719 -17.761719 C 8.761719 -16.679688 8.761719 -15.601562 8.761719 -14.519531 C 8.761719 -13.441406 8.519531 -12.359375 8.519531 -11.28125 C 8.398438 -10.199219 8.761719 -9.121094 8.761719 -8.039062 C 8.761719 -6.960938 8.761719 -5.878906 8.761719 -4.800781 C 8.761719 -4.078125 9.238281 -2.878906 10.078125 -2.039062 C 11.039062 -1.078125 12.121094 -0.601562 12.960938 -0.601562 C 14.039062 -0.601562 15.121094 -0.359375 16.320312 -0.359375 C 17.398438 -0.359375 18.480469 -0.121094 19.679688 -0.121094 C 20.761719 -0.121094 21.839844 -0.121094 23.039062 -0.121094 C 24.121094 0 25.199219 -0.121094 26.398438 -0.121094 C 27.480469 -0.121094 28.679688 0.121094 29.761719 0.121094 C 30.839844 0.238281 32.039062 0.121094 33.121094 0.121094 C 34.320312 0.238281 35.398438 0 36.480469 0 C 37.679688 0 38.761719 0 39.839844 0 C 41.039062 0 42.121094 0.238281 43.199219 0.238281 C 44.398438 0.238281 45.480469 0.121094 46.558594 0.121094 C 47.761719 0.121094 48.839844 0.121094 49.921875 0 C 51.238281 0 52.078125 -0.480469 52.679688 -1.320312 C 53.28125 -2.039062 53.519531 -3.121094 53.398438 -4.320312 C 53.160156 -5.28125 52.921875 -6.480469 52.320312 -7.441406 C 51.71875 -8.160156 51.238281 -9.359375 50.640625 -10.441406 C 50.039062 -11.640625 49.320312 -12.480469 48.238281 -12.601562 C 47.28125 -12.71875 46.320312 -12.71875 45.121094 -12.71875 C 44.160156 -12.71875 43.078125 -12.71875 42 -12.71875 C 40.921875 -12.71875 39.839844 -12.960938 38.878906 -12.960938 C 37.800781 -12.960938 36.71875 -12.71875 35.761719 -12.601562 C 34.679688 -12.601562 33.601562 -12.839844 32.519531 -12.839844 C 31.441406 -12.839844 30.359375 -12.71875 29.519531 -12.71875 C 28.441406 -12.839844 27.480469 -12.839844 26.640625 -12.839844 C 25.558594 -12.839844 24.601562 -12.71875 23.761719 -12.71875 C 21.960938 -12.71875 21.839844 -11.761719 20.761719 -12.71875 C 19.441406 -14.160156 20.640625 -14.28125 20.519531 -16.558594 C 20.519531 -17.640625 20.398438 -18.960938 20.398438 -20.398438 C 20.519531 -21.960938 20.039062 -22.441406 20.519531 -24.480469 C 21.480469 -24.480469 22.558594 -24.359375 23.761719 -24.359375 C 24.839844 -24.359375 25.921875 -24.480469 27 -24.480469 C 28.078125 -24.480469 29.28125 -24.359375 30.359375 -24.359375 C 31.441406 -24.359375 32.519531 -24.601562 33.601562 -24.601562 C 34.800781 -24.601562 35.878906 -24.359375 36.839844 -24.359375 C 38.160156 -24.359375 39.238281 -24.359375 40.199219 -24.359375 C 41.519531 -24.359375 42.601562 -24.71875 43.441406 -24.960938 C 44.761719 -25.199219 45.839844 -25.558594 46.441406 -26.28125 C 47.039062 -27.121094 47.398438 -28.199219 47.519531 -29.519531 C 47.519531 -30.480469 47.160156 -31.558594 47.039062 -32.761719 C 46.921875 -33.839844 46.921875 -34.921875 46.679688 -36.121094 C 45.839844 -36.238281 44.761719 -36.359375 43.558594 -36.359375 C 42.601562 -36.359375 41.640625 -36.121094 40.558594 -36.238281 C 39.480469 -36.238281 38.519531 -36.601562 37.441406 -36.601562 C 36.359375 -36.601562 35.398438 -36.359375 34.320312 -36.480469 C 33.359375 -36.480469 32.28125 -36.601562 31.320312 -36.601562 C 30.238281 -36.71875 29.160156 -36.71875 28.320312 -36.71875 C 27.121094 -36.839844 25.800781 -37.078125 24.71875 -37.078125 C 22.679688 -37.078125 22.320312 -35.640625 21 -36.960938 C 19.679688 -38.160156 21.121094 -38.761719 21 -40.679688 C 21 -41.878906 21 -43.199219 21 -44.398438 C 21 -45.601562 21 -46.199219 21.121094 -47.28125 C 21.359375 -48 21.601562 -48.839844 21.839844 -50.160156 C 22.921875 -50.160156 23.878906 -50.28125 25.078125 -50.28125 Z M 25.078125 -50.28125 "/></g></g></g><g fill="#ff2768" fill-opacity="1"><g transform="translate(252.114475, 276.749982)"><g><path d="M 24.601562 -24.839844 C 25.800781 -25.078125 26.761719 -25.199219 27.71875 -25.320312 C 28.921875 -25.441406 29.878906 -25.320312 30.71875 -25.320312 C 32.039062 -25.320312 33 -25.320312 33.839844 -24.960938 C 34.800781 -24.601562 35.519531 -23.878906 36.238281 -23.039062 C 36.71875 -22.320312 37.199219 -21.359375 37.800781 -20.28125 C 38.160156 -19.441406 38.519531 -18.480469 39.121094 -17.519531 C 39.601562 -16.441406 40.078125 -15.359375 40.679688 -14.28125 C 41.28125 -13.199219 41.640625 -12 42.238281 -10.921875 C 42.71875 -9.839844 43.558594 -8.878906 44.039062 -7.800781 C 44.640625 -6.71875 45.121094 -5.640625 45.601562 -4.558594 C 46.199219 -3.601562 46.800781 -2.878906 47.160156 -2.160156 C 47.878906 -1.078125 48.480469 -0.601562 49.199219 -0.238281 C 50.039062 0.121094 50.761719 0.121094 51.960938 0 C 52.800781 0 53.761719 0 54.960938 0 C 56.519531 0 57.71875 -0.121094 58.441406 -0.359375 C 59.640625 -0.71875 59.640625 -1.441406 59.039062 -3.238281 C 58.800781 -4.078125 58.558594 -5.28125 57.839844 -6.601562 C 57.480469 -7.558594 56.761719 -8.519531 56.28125 -9.71875 C 55.800781 -10.679688 55.320312 -11.761719 54.839844 -12.839844 C 54.359375 -13.921875 54.238281 -15.121094 53.761719 -16.199219 C 53.28125 -17.28125 52.679688 -18.359375 52.320312 -19.320312 C 51.839844 -20.398438 51.359375 -21.480469 51 -22.558594 C 50.519531 -23.640625 49.800781 -24.601562 49.320312 -25.679688 C 48.960938 -26.519531 48.960938 -27.480469 49.199219 -28.320312 C 49.441406 -29.160156 50.039062 -29.878906 50.761719 -30.359375 C 51.839844 -31.078125 52.921875 -31.558594 54 -32.519531 C 54.71875 -33.359375 55.199219 -34.320312 55.800781 -35.160156 C 56.519531 -36.121094 57 -36.960938 57.480469 -37.921875 C 57.839844 -38.878906 58.320312 -39.839844 58.558594 -40.921875 C 58.800781 -42 58.921875 -42.960938 59.039062 -44.039062 C 59.039062 -45.121094 58.921875 -46.199219 58.800781 -47.28125 C 58.558594 -48.238281 58.441406 -49.320312 58.078125 -50.398438 C 57.71875 -51.359375 57.238281 -52.320312 56.761719 -53.28125 C 56.160156 -54.121094 55.800781 -55.199219 55.078125 -56.039062 C 54.359375 -56.761719 53.398438 -57.359375 52.558594 -58.078125 C 51.839844 -58.679688 51 -59.398438 50.039062 -60 C 49.078125 -60.480469 48.121094 -60.839844 47.039062 -61.199219 C 46.078125 -61.558594 45 -61.800781 43.921875 -62.039062 C 42.960938 -62.160156 41.878906 -62.28125 40.800781 -62.398438 C 39.71875 -62.519531 38.761719 -62.640625 37.679688 -62.761719 C 36.601562 -62.878906 35.519531 -63 34.441406 -63 C 33.480469 -63 32.398438 -63 31.320312 -63 C 30.238281 -63 29.160156 -63.121094 28.199219 -63.121094 C 27.121094 -63.121094 26.039062 -63 24.960938 -63 C 23.878906 -63 22.800781 -63 21.839844 -63 C 20.761719 -63 19.679688 -63 18.601562 -63 C 17.398438 -63 16.320312 -63 15.359375 -63 C 14.039062 -62.878906 12.960938 -62.878906 12 -62.640625 C 10.921875 -62.28125 10.199219 -61.800781 9.71875 -60.71875 C 9.359375 -59.878906 9.238281 -58.800781 9.238281 -57.480469 C 9.121094 -56.398438 9 -55.320312 9 -54.238281 C 9 -53.160156 8.761719 -52.078125 8.761719 -51 C 8.761719 -50.039062 8.878906 -48.960938 8.878906 -47.761719 C 8.878906 -46.679688 8.878906 -45.601562 8.878906 -44.519531 C 8.878906 -43.441406 8.761719 -42.359375 8.761719 -41.28125 C 8.761719 -40.320312 8.761719 -39.238281 8.761719 -38.160156 C 8.761719 -37.078125 8.878906 -36 8.878906 -34.921875 C 8.878906 -33.839844 8.640625 -32.761719 8.640625 -31.679688 C 8.640625 -30.601562 8.640625 -29.519531 8.640625 -28.441406 C 8.640625 -27.359375 8.761719 -26.28125 8.761719 -25.199219 C 8.761719 -24.121094 8.640625 -23.039062 8.640625 -21.960938 C 8.640625 -21 8.761719 -19.921875 8.761719 -18.839844 C 8.761719 -17.761719 8.761719 -16.679688 8.761719 -15.601562 C 8.761719 -14.519531 8.878906 -13.441406 8.878906 -12.480469 C 8.878906 -11.28125 8.761719 -10.320312 8.761719 -9.238281 C 8.761719 -8.398438 8.878906 -7.441406 8.761719 -6.480469 C 8.761719 -5.519531 8.398438 -4.558594 8.519531 -3.601562 C 8.519531 -2.640625 8.878906 -1.679688 9.238281 -0.960938 C 9.601562 -0.359375 10.800781 0 12 0.121094 C 13.199219 0.359375 14.519531 0.359375 15.238281 0.238281 C 16.078125 0.121094 17.28125 0.238281 18.359375 0.121094 C 19.679688 0 20.761719 -0.359375 21.121094 -1.199219 C 21.480469 -1.921875 21.71875 -3 21.71875 -4.199219 C 21.839844 -5.160156 21.839844 -6.238281 21.839844 -7.320312 C 21.71875 -8.398438 21.601562 -9.480469 21.601562 -10.320312 C 21.601562 -11.519531 21.601562 -12.71875 21.601562 -13.800781 C 21.71875 -15 21.480469 -16.199219 21.480469 -17.398438 C 21.480469 -18.480469 21.71875 -19.679688 21.71875 -20.878906 C 21.71875 -21.960938 21.480469 -23.28125 21.480469 -24.359375 C 22.558594 -24.601562 23.640625 -24.71875 24.601562 -24.839844 Z M 22.199219 -39.601562 C 22.199219 -40.558594 22.078125 -41.640625 22.078125 -42.601562 C 22.078125 -43.558594 22.199219 -44.519531 22.199219 -45.601562 C 22.199219 -46.558594 22.078125 -47.519531 22.078125 -48.601562 C 22.078125 -49.558594 22.078125 -50.519531 22.078125 -51.480469 C 23.28125 -51.480469 24.480469 -51.601562 25.679688 -51.71875 C 26.878906 -51.71875 28.199219 -51.601562 29.398438 -51.601562 C 30.601562 -51.601562 31.800781 -51.839844 33 -51.839844 C 34.199219 -51.839844 35.398438 -51.601562 36.601562 -51.480469 C 37.679688 -51.480469 38.761719 -51.480469 39.71875 -51.238281 C 40.800781 -51 41.878906 -50.519531 42.71875 -50.039062 C 43.679688 -49.558594 44.398438 -48.839844 45 -48 C 45.71875 -47.160156 45.960938 -46.078125 45.960938 -45.121094 C 46.078125 -43.921875 45.71875 -42.839844 45.121094 -41.761719 C 44.519531 -40.800781 43.679688 -39.960938 42.71875 -39.238281 C 41.761719 -38.519531 40.800781 -37.921875 39.601562 -37.558594 C 38.519531 -37.078125 37.441406 -36.71875 36.238281 -36.601562 C 35.160156 -36.601562 33.960938 -36.601562 32.761719 -36.480469 C 31.558594 -36.480469 30.359375 -36.238281 29.160156 -36.238281 C 27.960938 -36.359375 26.878906 -36.601562 25.558594 -36.601562 C 24.480469 -36.71875 23.160156 -36.480469 21.960938 -36.480469 C 21.960938 -37.558594 22.199219 -38.640625 22.199219 -39.601562 Z M 22.199219 -39.601562 "/></g></g></g></svg>