<svg xmlns="http://www.w3.org/2000/svg" xmlns:xlink="http://www.w3.org/1999/xlink" width="400" zoomAndPan="magnify" viewBox="0 0 300 187.499995" height="250" preserveAspectRatio="xMidYMid meet" version="1.0"><defs><g/></defs><g fill="#ffffff" fill-opacity="1"><g transform="translate(54.293655, 115.192782)"><g><path d="M 1.234375 -37.921875 L 1.078125 -0.328125 L 25.953125 0 L 25.953125 -10.390625 L 10.984375 -10.453125 L 12.328125 -37.328125 Z M 1.234375 -37.921875 "/></g></g></g><g fill="#ffffff" fill-opacity="1"><g transform="translate(85.099514, 115.192782)"><g><path d="M 12.171875 -21 L 12.171875 -27.09375 L 38.453125 -26.828125 L 38.453125 -36.296875 L 1.078125 -36.84375 L 1.453125 -0.109375 L 37.4375 0.109375 L 37.109375 -8.78125 L 12.4375 -9.421875 L 12.546875 -15.9375 L 32.796875 -15.625 L 33.125 -20.625 Z M 12.171875 -21 "/></g></g></g><g fill="#ffffff" fill-opacity="1"><g transform="translate(128.40006, 115.192782)"><g><path d="M 22.078125 -12.21875 L 12.65625 -36.359375 L 1.078125 -35.984375 L 17.390625 -0.046875 L 28.328125 0 L 42.125 -34.625 L 31.234375 -35.28125 Z M 22.078125 -12.21875 "/></g></g></g><g fill="#ffffff" fill-opacity="1"><g transform="translate(175.362831, 115.192782)"><g><path d="M 12.171875 -21 L 12.171875 -27.09375 L 38.453125 -26.828125 L 38.453125 -36.296875 L 1.078125 -36.84375 L 1.453125 -0.109375 L 37.4375 0.109375 L 37.109375 -8.78125 L 12.4375 -9.421875 L 12.546875 -15.9375 L 32.796875 -15.625 L 33.125 -20.625 Z M 12.171875 -21 "/></g></g></g><g fill="#ffffff" fill-opacity="1"><g transform="translate(218.663383, 115.192782)"><g><path d="M 1.234375 -37.921875 L 1.078125 -0.328125 L 25.953125 0 L 25.953125 -10.390625 L 10.984375 -10.453125 L 12.328125 -37.328125 Z M 1.234375 -37.921875 "/></g></g></g></svg>