<svg xmlns="http://www.w3.org/2000/svg" xmlns:xlink="http://www.w3.org/1999/xlink" width="250" zoomAndPan="magnify" viewBox="0 0 187.5 44.999999" height="60" preserveAspectRatio="xMidYMid meet" version="1.0"><defs><g/><clipPath id="69f9c0484c"><path d="M 0 0.0585938 L 187 0.0585938 L 187 44.9375 L 0 44.9375 Z M 0 0.0585938 " clip-rule="nonzero"/></clipPath></defs><g clip-path="url(#69f9c0484c)"><path fill="#ffffff" d="M 0 0.0585938 L 187.5 0.0585938 L 187.5 52.558594 L 0 52.558594 Z M 0 0.0585938 " fill-opacity="1" fill-rule="nonzero"/><path fill="#ffffff" d="M 0 0.0585938 L 187.5 0.0585938 L 187.5 45.058594 L 0 45.058594 Z M 0 0.0585938 " fill-opacity="1" fill-rule="nonzero"/><path fill="#ffffff" d="M 0 0.0585938 L 187.5 0.0585938 L 187.5 45.058594 L 0 45.058594 Z M 0 0.0585938 " fill-opacity="1" fill-rule="nonzero"/></g><g fill="#000000" fill-opacity="1"><g transform="translate(13.221679, 27.059837)"><g><path d="M 0.984375 -9.796875 L 3.75 -9.796875 L 3.75 -2.203125 L 8.421875 -2.203125 L 8.421875 0 L 0.984375 0 Z M 0.984375 -9.796875 "/></g></g></g><g fill="#000000" fill-opacity="1"><g transform="translate(21.756911, 27.059837)"><g><path d="M 5.921875 0.203125 C 4.890625 0.203125 3.957031 -0.015625 3.125 -0.453125 C 2.300781 -0.898438 1.648438 -1.507812 1.171875 -2.28125 C 0.703125 -3.050781 0.46875 -3.925781 0.46875 -4.90625 C 0.46875 -5.875 0.703125 -6.742188 1.171875 -7.515625 C 1.648438 -8.296875 2.300781 -8.90625 3.125 -9.34375 C 3.957031 -9.78125 4.890625 -10 5.921875 -10 C 6.953125 -10 7.878906 -9.78125 8.703125 -9.34375 C 9.535156 -8.90625 10.1875 -8.296875 10.65625 -7.515625 C 11.132812 -6.742188 11.375 -5.875 11.375 -4.90625 C 11.375 -3.925781 11.132812 -3.050781 10.65625 -2.28125 C 10.1875 -1.507812 9.535156 -0.898438 8.703125 -0.453125 C 7.878906 -0.015625 6.953125 0.203125 5.921875 0.203125 Z M 5.921875 -2.09375 C 6.410156 -2.09375 6.859375 -2.207031 7.265625 -2.4375 C 7.671875 -2.675781 7.988281 -3.007812 8.21875 -3.4375 C 8.445312 -3.863281 8.5625 -4.351562 8.5625 -4.90625 C 8.5625 -5.445312 8.445312 -5.929688 8.21875 -6.359375 C 7.988281 -6.785156 7.671875 -7.113281 7.265625 -7.34375 C 6.859375 -7.582031 6.410156 -7.703125 5.921875 -7.703125 C 5.429688 -7.703125 4.984375 -7.582031 4.578125 -7.34375 C 4.171875 -7.113281 3.851562 -6.785156 3.625 -6.359375 C 3.394531 -5.929688 3.28125 -5.445312 3.28125 -4.90625 C 3.28125 -4.351562 3.394531 -3.863281 3.625 -3.4375 C 3.851562 -3.007812 4.171875 -2.675781 4.578125 -2.4375 C 4.984375 -2.207031 5.429688 -2.09375 5.921875 -2.09375 Z M 5.921875 -2.09375 "/></g></g></g><g fill="#000000" fill-opacity="1"><g transform="translate(33.594301, 27.059837)"><g><path d="M 7.546875 -5.109375 L 10 -5.109375 L 10 -1.046875 C 9.4375 -0.648438 8.789062 -0.34375 8.0625 -0.125 C 7.332031 0.09375 6.601562 0.203125 5.875 0.203125 C 4.851562 0.203125 3.929688 -0.015625 3.109375 -0.453125 C 2.285156 -0.890625 1.640625 -1.492188 1.171875 -2.265625 C 0.703125 -3.046875 0.46875 -3.925781 0.46875 -4.90625 C 0.46875 -5.882812 0.703125 -6.757812 1.171875 -7.53125 C 1.640625 -8.300781 2.289062 -8.90625 3.125 -9.34375 C 3.957031 -9.78125 4.894531 -10 5.9375 -10 C 6.851562 -10 7.671875 -9.84375 8.390625 -9.53125 C 9.117188 -9.226562 9.726562 -8.785156 10.21875 -8.203125 L 8.453125 -6.609375 C 7.796875 -7.335938 7.003906 -7.703125 6.078125 -7.703125 C 5.234375 -7.703125 4.554688 -7.445312 4.046875 -6.9375 C 3.535156 -6.425781 3.28125 -5.75 3.28125 -4.90625 C 3.28125 -4.363281 3.394531 -3.878906 3.625 -3.453125 C 3.851562 -3.023438 4.175781 -2.691406 4.59375 -2.453125 C 5.019531 -2.210938 5.503906 -2.09375 6.046875 -2.09375 C 6.578125 -2.09375 7.078125 -2.203125 7.546875 -2.421875 Z M 7.546875 -5.109375 "/></g></g></g><g fill="#000000" fill-opacity="1"><g transform="translate(44.368283, 27.059837)"><g><path d="M 0.984375 -9.796875 L 3.75 -9.796875 L 3.75 0 L 0.984375 0 Z M 0.984375 -9.796875 "/></g></g></g><g fill="#000000" fill-opacity="1"><g transform="translate(49.111629, 27.059837)"><g><path d="M 10.296875 -9.796875 L 10.296875 0 L 8.015625 0 L 3.703125 -5.21875 L 3.703125 0 L 0.984375 0 L 0.984375 -9.796875 L 3.265625 -9.796875 L 7.59375 -4.578125 L 7.59375 -9.796875 Z M 10.296875 -9.796875 "/></g></g></g><g fill="#000000" fill-opacity="1"><g transform="translate(60.389335, 27.059837)"><g/></g></g><g fill="#000000" fill-opacity="1"><g transform="translate(64.461062, 27.059837)"><g><path d="M 8.734375 0.171875 L 7.625 -0.8125 C 7.164062 -0.488281 6.65625 -0.238281 6.09375 -0.0625 C 5.539062 0.113281 4.957031 0.203125 4.34375 0.203125 C 3.601562 0.203125 2.929688 0.0820312 2.328125 -0.15625 C 1.734375 -0.394531 1.269531 -0.722656 0.9375 -1.140625 C 0.601562 -1.566406 0.4375 -2.039062 0.4375 -2.5625 C 0.4375 -3.175781 0.597656 -3.710938 0.921875 -4.171875 C 1.242188 -4.640625 1.765625 -5.066406 2.484375 -5.453125 C 1.859375 -6.078125 1.546875 -6.734375 1.546875 -7.421875 C 1.546875 -7.910156 1.679688 -8.347656 1.953125 -8.734375 C 2.222656 -9.117188 2.601562 -9.414062 3.09375 -9.625 C 3.59375 -9.832031 4.171875 -9.9375 4.828125 -9.9375 C 5.734375 -9.9375 6.460938 -9.722656 7.015625 -9.296875 C 7.578125 -8.878906 7.859375 -8.3125 7.859375 -7.59375 C 7.859375 -7.082031 7.707031 -6.628906 7.40625 -6.234375 C 7.113281 -5.847656 6.65625 -5.484375 6.03125 -5.140625 L 7.46875 -3.859375 C 7.644531 -4.273438 7.785156 -4.742188 7.890625 -5.265625 L 10.03125 -4.625 C 9.851562 -3.78125 9.550781 -3.035156 9.125 -2.390625 L 10.15625 -1.46875 Z M 4.828125 -8.1875 C 4.554688 -8.1875 4.34375 -8.117188 4.1875 -7.984375 C 4.039062 -7.847656 3.96875 -7.675781 3.96875 -7.46875 C 3.96875 -7.300781 4.007812 -7.144531 4.09375 -7 C 4.1875 -6.863281 4.351562 -6.675781 4.59375 -6.4375 C 4.96875 -6.632812 5.226562 -6.816406 5.375 -6.984375 C 5.53125 -7.160156 5.609375 -7.34375 5.609375 -7.53125 C 5.609375 -7.738281 5.539062 -7.898438 5.40625 -8.015625 C 5.269531 -8.128906 5.078125 -8.1875 4.828125 -8.1875 Z M 4.53125 -1.828125 C 5.070312 -1.828125 5.570312 -1.960938 6.03125 -2.234375 L 3.921875 -4.109375 C 3.609375 -3.929688 3.378906 -3.738281 3.234375 -3.53125 C 3.097656 -3.332031 3.03125 -3.109375 3.03125 -2.859375 C 3.03125 -2.554688 3.164062 -2.304688 3.4375 -2.109375 C 3.707031 -1.921875 4.070312 -1.828125 4.53125 -1.828125 Z M 4.53125 -1.828125 "/></g></g></g><g fill="#000000" fill-opacity="1"><g transform="translate(74.983194, 27.059837)"><g/></g></g><g fill="#000000" fill-opacity="1"><g transform="translate(79.054921, 27.059837)"><g><path d="M 4.421875 0.203125 C 3.628906 0.203125 2.859375 0.101562 2.109375 -0.09375 C 1.367188 -0.289062 0.765625 -0.550781 0.296875 -0.875 L 1.203125 -2.921875 C 1.640625 -2.628906 2.144531 -2.394531 2.71875 -2.21875 C 3.300781 -2.039062 3.875 -1.953125 4.4375 -1.953125 C 5.5 -1.953125 6.03125 -2.222656 6.03125 -2.765625 C 6.03125 -3.035156 5.878906 -3.238281 5.578125 -3.375 C 5.273438 -3.507812 4.785156 -3.65625 4.109375 -3.8125 C 3.378906 -3.96875 2.765625 -4.132812 2.265625 -4.3125 C 1.773438 -4.5 1.351562 -4.789062 1 -5.1875 C 0.644531 -5.59375 0.46875 -6.132812 0.46875 -6.8125 C 0.46875 -7.414062 0.628906 -7.957031 0.953125 -8.4375 C 1.273438 -8.914062 1.757812 -9.296875 2.40625 -9.578125 C 3.0625 -9.859375 3.859375 -10 4.796875 -10 C 5.441406 -10 6.078125 -9.925781 6.703125 -9.78125 C 7.328125 -9.632812 7.878906 -9.421875 8.359375 -9.140625 L 7.5 -7.078125 C 6.570312 -7.585938 5.664062 -7.84375 4.78125 -7.84375 C 4.238281 -7.84375 3.835938 -7.757812 3.578125 -7.59375 C 3.328125 -7.425781 3.203125 -7.210938 3.203125 -6.953125 C 3.203125 -6.691406 3.351562 -6.492188 3.65625 -6.359375 C 3.957031 -6.234375 4.4375 -6.101562 5.09375 -5.96875 C 5.84375 -5.800781 6.460938 -5.628906 6.953125 -5.453125 C 7.441406 -5.273438 7.863281 -4.984375 8.21875 -4.578125 C 8.582031 -4.179688 8.765625 -3.644531 8.765625 -2.96875 C 8.765625 -2.382812 8.597656 -1.851562 8.265625 -1.375 C 7.941406 -0.894531 7.453125 -0.507812 6.796875 -0.21875 C 6.148438 0.0625 5.359375 0.203125 4.421875 0.203125 Z M 4.421875 0.203125 "/></g></g></g><g fill="#000000" fill-opacity="1"><g transform="translate(88.107872, 27.059837)"><g><path d="M 7.546875 -1.90625 L 3.40625 -1.90625 L 2.625 0 L -0.203125 0 L 4.125 -9.796875 L 6.859375 -9.796875 L 11.203125 0 L 8.3125 0 Z M 6.734375 -3.953125 L 5.46875 -7.078125 L 4.21875 -3.953125 Z M 6.734375 -3.953125 "/></g></g></g><g fill="#000000" fill-opacity="1"><g transform="translate(99.105735, 27.059837)"><g><path d="M 10.921875 -9.796875 L 6.71875 0 L 3.984375 0 L -0.203125 -9.796875 L 2.796875 -9.796875 L 5.453125 -3.421875 L 8.171875 -9.796875 Z M 10.921875 -9.796875 "/></g></g></g><g fill="#000000" fill-opacity="1"><g transform="translate(109.823756, 27.059837)"><g><path d="M 8.84375 -2.140625 L 8.84375 0 L 0.984375 0 L 0.984375 -9.796875 L 8.671875 -9.796875 L 8.671875 -7.65625 L 3.71875 -7.65625 L 3.71875 -6 L 8.078125 -6 L 8.078125 -3.9375 L 3.71875 -3.9375 L 3.71875 -2.140625 Z M 8.84375 -2.140625 "/></g></g></g><g fill="#000000" fill-opacity="1"><g transform="translate(119.226507, 27.059837)"><g/></g></g><g fill="#000000" fill-opacity="1"><g transform="translate(123.298234, 27.059837)"><g><path d="M 4.421875 0.203125 C 3.628906 0.203125 2.859375 0.101562 2.109375 -0.09375 C 1.367188 -0.289062 0.765625 -0.550781 0.296875 -0.875 L 1.203125 -2.921875 C 1.640625 -2.628906 2.144531 -2.394531 2.71875 -2.21875 C 3.300781 -2.039062 3.875 -1.953125 4.4375 -1.953125 C 5.5 -1.953125 6.03125 -2.222656 6.03125 -2.765625 C 6.03125 -3.035156 5.878906 -3.238281 5.578125 -3.375 C 5.273438 -3.507812 4.785156 -3.65625 4.109375 -3.8125 C 3.378906 -3.96875 2.765625 -4.132812 2.265625 -4.3125 C 1.773438 -4.5 1.351562 -4.789062 1 -5.1875 C 0.644531 -5.59375 0.46875 -6.132812 0.46875 -6.8125 C 0.46875 -7.414062 0.628906 -7.957031 0.953125 -8.4375 C 1.273438 -8.914062 1.757812 -9.296875 2.40625 -9.578125 C 3.0625 -9.859375 3.859375 -10 4.796875 -10 C 5.441406 -10 6.078125 -9.925781 6.703125 -9.78125 C 7.328125 -9.632812 7.878906 -9.421875 8.359375 -9.140625 L 7.5 -7.078125 C 6.570312 -7.585938 5.664062 -7.84375 4.78125 -7.84375 C 4.238281 -7.84375 3.835938 -7.757812 3.578125 -7.59375 C 3.328125 -7.425781 3.203125 -7.210938 3.203125 -6.953125 C 3.203125 -6.691406 3.351562 -6.492188 3.65625 -6.359375 C 3.957031 -6.234375 4.4375 -6.101562 5.09375 -5.96875 C 5.84375 -5.800781 6.460938 -5.628906 6.953125 -5.453125 C 7.441406 -5.273438 7.863281 -4.984375 8.21875 -4.578125 C 8.582031 -4.179688 8.765625 -3.644531 8.765625 -2.96875 C 8.765625 -2.382812 8.597656 -1.851562 8.265625 -1.375 C 7.941406 -0.894531 7.453125 -0.507812 6.796875 -0.21875 C 6.148438 0.0625 5.359375 0.203125 4.421875 0.203125 Z M 4.421875 0.203125 "/></g></g></g><g fill="#000000" fill-opacity="1"><g transform="translate(132.351185, 27.059837)"><g><path d="M 5.859375 0.203125 C 4.835938 0.203125 3.914062 -0.015625 3.09375 -0.453125 C 2.28125 -0.890625 1.640625 -1.492188 1.171875 -2.265625 C 0.703125 -3.046875 0.46875 -3.925781 0.46875 -4.90625 C 0.46875 -5.882812 0.703125 -6.757812 1.171875 -7.53125 C 1.640625 -8.300781 2.28125 -8.90625 3.09375 -9.34375 C 3.914062 -9.78125 4.835938 -10 5.859375 -10 C 6.753906 -10 7.5625 -9.835938 8.28125 -9.515625 C 9 -9.203125 9.597656 -8.742188 10.078125 -8.140625 L 8.3125 -6.546875 C 7.675781 -7.316406 6.90625 -7.703125 6 -7.703125 C 5.46875 -7.703125 4.992188 -7.582031 4.578125 -7.34375 C 4.171875 -7.113281 3.851562 -6.785156 3.625 -6.359375 C 3.394531 -5.929688 3.28125 -5.445312 3.28125 -4.90625 C 3.28125 -4.351562 3.394531 -3.863281 3.625 -3.4375 C 3.851562 -3.007812 4.171875 -2.675781 4.578125 -2.4375 C 4.992188 -2.207031 5.46875 -2.09375 6 -2.09375 C 6.90625 -2.09375 7.675781 -2.476562 8.3125 -3.25 L 10.078125 -1.65625 C 9.597656 -1.050781 9 -0.585938 8.28125 -0.265625 C 7.5625 0.046875 6.753906 0.203125 5.859375 0.203125 Z M 5.859375 0.203125 "/></g></g></g><g fill="#000000" fill-opacity="1"><g transform="translate(142.677417, 27.059837)"><g><path d="M 5.921875 0.203125 C 4.890625 0.203125 3.957031 -0.015625 3.125 -0.453125 C 2.300781 -0.898438 1.648438 -1.507812 1.171875 -2.28125 C 0.703125 -3.050781 0.46875 -3.925781 0.46875 -4.90625 C 0.46875 -5.875 0.703125 -6.742188 1.171875 -7.515625 C 1.648438 -8.296875 2.300781 -8.90625 3.125 -9.34375 C 3.957031 -9.78125 4.890625 -10 5.921875 -10 C 6.953125 -10 7.878906 -9.78125 8.703125 -9.34375 C 9.535156 -8.90625 10.1875 -8.296875 10.65625 -7.515625 C 11.132812 -6.742188 11.375 -5.875 11.375 -4.90625 C 11.375 -3.925781 11.132812 -3.050781 10.65625 -2.28125 C 10.1875 -1.507812 9.535156 -0.898438 8.703125 -0.453125 C 7.878906 -0.015625 6.953125 0.203125 5.921875 0.203125 Z M 5.921875 -2.09375 C 6.410156 -2.09375 6.859375 -2.207031 7.265625 -2.4375 C 7.671875 -2.675781 7.988281 -3.007812 8.21875 -3.4375 C 8.445312 -3.863281 8.5625 -4.351562 8.5625 -4.90625 C 8.5625 -5.445312 8.445312 -5.929688 8.21875 -6.359375 C 7.988281 -6.785156 7.671875 -7.113281 7.265625 -7.34375 C 6.859375 -7.582031 6.410156 -7.703125 5.921875 -7.703125 C 5.429688 -7.703125 4.984375 -7.582031 4.578125 -7.34375 C 4.171875 -7.113281 3.851562 -6.785156 3.625 -6.359375 C 3.394531 -5.929688 3.28125 -5.445312 3.28125 -4.90625 C 3.28125 -4.351562 3.394531 -3.863281 3.625 -3.4375 C 3.851562 -3.007812 4.171875 -2.675781 4.578125 -2.4375 C 4.984375 -2.207031 5.429688 -2.09375 5.921875 -2.09375 Z M 5.921875 -2.09375 "/></g></g></g><g fill="#000000" fill-opacity="1"><g transform="translate(154.514807, 27.059837)"><g><path d="M 5.265625 -2.609375 L 3.75 -2.609375 L 3.75 0 L 0.984375 0 L 0.984375 -9.796875 L 5.453125 -9.796875 C 6.347656 -9.796875 7.117188 -9.648438 7.765625 -9.359375 C 8.421875 -9.066406 8.925781 -8.644531 9.28125 -8.09375 C 9.632812 -7.550781 9.8125 -6.910156 9.8125 -6.171875 C 9.8125 -5.460938 9.644531 -4.84375 9.3125 -4.3125 C 8.976562 -3.789062 8.503906 -3.378906 7.890625 -3.078125 L 10.015625 0 L 7.046875 0 Z M 7.015625 -6.171875 C 7.015625 -6.628906 6.867188 -6.984375 6.578125 -7.234375 C 6.285156 -7.484375 5.859375 -7.609375 5.296875 -7.609375 L 3.75 -7.609375 L 3.75 -4.75 L 5.296875 -4.75 C 5.859375 -4.75 6.285156 -4.867188 6.578125 -5.109375 C 6.867188 -5.359375 7.015625 -5.710938 7.015625 -6.171875 Z M 7.015625 -6.171875 "/></g></g></g><g fill="#000000" fill-opacity="1"><g transform="translate(164.869032, 27.059837)"><g><path d="M 8.84375 -2.140625 L 8.84375 0 L 0.984375 0 L 0.984375 -9.796875 L 8.671875 -9.796875 L 8.671875 -7.65625 L 3.71875 -7.65625 L 3.71875 -6 L 8.078125 -6 L 8.078125 -3.9375 L 3.71875 -3.9375 L 3.71875 -2.140625 Z M 8.84375 -2.140625 "/></g></g></g></svg>