<svg xmlns="http://www.w3.org/2000/svg" xmlns:xlink="http://www.w3.org/1999/xlink" width="500" zoomAndPan="magnify" viewBox="0 0 375 374.999991" height="500" preserveAspectRatio="xMidYMid meet" version="1.0"><defs><clipPath id="e99717ed6b"><path d="M 37.5 38 L 230 38 L 230 337.5 L 37.5 337.5 Z M 37.5 38 " clip-rule="nonzero"/></clipPath></defs><g clip-path="url(#e99717ed6b)"><path fill="#ffffff" d="M 223.84375 39.734375 C 220.265625 37.921875 215.972656 38.246094 212.71875 40.609375 L 98.085938 123.976562 L 48.175781 123.976562 C 42.273438 123.976562 37.5 128.753906 37.5 134.652344 L 37.5 241.414062 C 37.5 247.316406 42.273438 252.089844 48.175781 252.089844 L 98.085938 252.089844 L 212.71875 335.457031 C 214.574219 336.8125 216.785156 337.5 218.996094 337.5 C 220.652344 337.5 222.308594 337.113281 223.84375 336.332031 C 227.417969 334.519531 229.671875 330.835938 229.671875 326.824219 L 229.671875 49.242188 C 229.671875 45.230469 227.417969 41.550781 223.84375 39.734375 Z M 223.84375 39.734375 " fill-opacity="1" fill-rule="nonzero"/></g><path fill="#ffffff" d="M 333.304688 148.457031 C 329.132812 144.285156 322.378906 144.285156 318.207031 148.457031 L 293.726562 172.9375 L 269.246094 148.457031 C 265.078125 144.285156 258.320312 144.285156 254.152344 148.457031 C 249.980469 152.628906 249.980469 159.382812 254.152344 163.554688 L 278.632812 188.035156 L 254.152344 212.515625 C 249.980469 216.683594 249.980469 223.441406 254.152344 227.609375 C 256.234375 229.695312 258.96875 230.738281 261.699219 230.738281 C 264.429688 230.738281 267.164062 229.695312 269.246094 227.609375 L 293.726562 203.128906 L 318.207031 227.609375 C 320.292969 229.695312 323.023438 230.738281 325.757812 230.738281 C 328.488281 230.738281 331.21875 229.695312 333.304688 227.609375 C 337.476562 223.441406 337.476562 216.683594 333.304688 212.515625 L 308.824219 188.035156 L 333.304688 163.554688 C 337.476562 159.382812 337.476562 152.628906 333.304688 148.457031 Z M 333.304688 148.457031 " fill-opacity="1" fill-rule="nonzero"/></svg>