<svg xmlns="http://www.w3.org/2000/svg" xmlns:xlink="http://www.w3.org/1999/xlink" width="250" zoomAndPan="magnify" viewBox="0 0 187.5 44.999999" height="60" preserveAspectRatio="xMidYMid meet" version="1.0"><defs><g/><clipPath id="3c2ddbe981"><path d="M 0 0.0585938 L 187 0.0585938 L 187 44.9375 L 0 44.9375 Z M 0 0.0585938 " clip-rule="nonzero"/></clipPath></defs><g clip-path="url(#3c2ddbe981)"><path fill="#ffffff" d="M 0 0.0585938 L 187.5 0.0585938 L 187.5 97.558594 L 0 97.558594 Z M 0 0.0585938 " fill-opacity="1" fill-rule="nonzero"/><path fill="#ffffff" d="M 0 0.0585938 L 187.5 0.0585938 L 187.5 45.058594 L 0 45.058594 Z M 0 0.0585938 " fill-opacity="1" fill-rule="nonzero"/><path fill="#000000" d="M 0 0.0585938 L 187.5 0.0585938 L 187.5 45.058594 L 0 45.058594 Z M 0 0.0585938 " fill-opacity="1" fill-rule="nonzero"/><path stroke-linecap="butt" transform="matrix(0.75, 0, 0, 0.75, 0, 0.0598411)" fill="none" stroke-linejoin="miter" d="M 0 -0.0016632 L 250.000021 -0.0016632 L 250.000021 59.998342 L 0 59.998342 L 0 -0.0016632 " stroke="#ffffff" stroke-width="6" stroke-opacity="1" stroke-miterlimit="4"/></g><g fill="#ffffff" fill-opacity="1"><g transform="translate(54.125974, 25.559838)"><g><path d="M 4.6875 -8.40625 C 5.4375 -8.40625 6.09375 -8.273438 6.65625 -8.015625 C 7.21875 -7.765625 7.648438 -7.40625 7.953125 -6.9375 C 8.253906 -6.46875 8.40625 -5.921875 8.40625 -5.296875 C 8.40625 -4.660156 8.253906 -4.109375 7.953125 -3.640625 C 7.648438 -3.179688 7.21875 -2.828125 6.65625 -2.578125 C 6.09375 -2.328125 5.4375 -2.203125 4.6875 -2.203125 L 3.21875 -2.203125 L 3.21875 0 L 0.84375 0 L 0.84375 -8.40625 Z M 4.53125 -4.0625 C 5.019531 -4.0625 5.390625 -4.164062 5.640625 -4.375 C 5.890625 -4.59375 6.015625 -4.898438 6.015625 -5.296875 C 6.015625 -5.679688 5.890625 -5.984375 5.640625 -6.203125 C 5.390625 -6.421875 5.019531 -6.53125 4.53125 -6.53125 L 3.21875 -6.53125 L 3.21875 -4.0625 Z M 4.53125 -4.0625 "/></g></g></g><g fill="#ffffff" fill-opacity="1"><g transform="translate(62.96999, 25.559838)"><g><path d="M 0.84375 -8.40625 L 3.21875 -8.40625 L 3.21875 -1.890625 L 7.21875 -1.890625 L 7.21875 0 L 0.84375 0 Z M 0.84375 -8.40625 "/></g></g></g><g fill="#ffffff" fill-opacity="1"><g transform="translate(70.290008, 25.559838)"><g><path d="M 6.46875 -1.625 L 2.921875 -1.625 L 2.25 0 L -0.171875 0 L 3.546875 -8.40625 L 5.875 -8.40625 L 9.59375 0 L 7.125 0 Z M 5.765625 -3.390625 L 4.6875 -6.078125 L 3.609375 -3.390625 Z M 5.765625 -3.390625 "/></g></g></g><g fill="#ffffff" fill-opacity="1"><g transform="translate(79.722022, 25.559838)"><g><path d="M 5.34375 -3.015625 L 5.34375 0 L 2.96875 0 L 2.96875 -3.046875 L -0.234375 -8.40625 L 2.265625 -8.40625 L 4.265625 -5.0625 L 6.25 -8.40625 L 8.5625 -8.40625 Z M 5.34375 -3.015625 "/></g></g></g><g fill="#ffffff" fill-opacity="1"><g transform="translate(88.038042, 25.559838)"><g/></g></g><g fill="#ffffff" fill-opacity="1"><g transform="translate(91.530046, 25.559838)"><g><path d="M 6.46875 -1.625 L 2.921875 -1.625 L 2.25 0 L -0.171875 0 L 3.546875 -8.40625 L 5.875 -8.40625 L 9.59375 0 L 7.125 0 Z M 5.765625 -3.390625 L 4.6875 -6.078125 L 3.609375 -3.390625 Z M 5.765625 -3.390625 "/></g></g></g><g fill="#ffffff" fill-opacity="1"><g transform="translate(100.96206, 25.559838)"><g><path d="M 6.46875 -4.375 L 8.5625 -4.375 L 8.5625 -0.90625 C 8.082031 -0.5625 7.53125 -0.296875 6.90625 -0.109375 C 6.28125 0.078125 5.660156 0.171875 5.046875 0.171875 C 4.160156 0.171875 3.363281 -0.015625 2.65625 -0.390625 C 1.957031 -0.765625 1.40625 -1.28125 1 -1.9375 C 0.601562 -2.601562 0.40625 -3.359375 0.40625 -4.203125 C 0.40625 -5.035156 0.601562 -5.785156 1 -6.453125 C 1.40625 -7.117188 1.960938 -7.632812 2.671875 -8 C 3.390625 -8.375 4.195312 -8.5625 5.09375 -8.5625 C 5.875 -8.5625 6.578125 -8.429688 7.203125 -8.171875 C 7.828125 -7.910156 8.347656 -7.53125 8.765625 -7.03125 L 7.25 -5.65625 C 6.675781 -6.28125 5.992188 -6.59375 5.203125 -6.59375 C 4.484375 -6.59375 3.90625 -6.375 3.46875 -5.9375 C 3.03125 -5.507812 2.8125 -4.929688 2.8125 -4.203125 C 2.8125 -3.734375 2.910156 -3.316406 3.109375 -2.953125 C 3.304688 -2.585938 3.582031 -2.300781 3.9375 -2.09375 C 4.300781 -1.894531 4.71875 -1.796875 5.1875 -1.796875 C 5.644531 -1.796875 6.070312 -1.890625 6.46875 -2.078125 Z M 6.46875 -4.375 "/></g></g></g><g fill="#ffffff" fill-opacity="1"><g transform="translate(110.202076, 25.559838)"><g><path d="M 6.46875 -1.625 L 2.921875 -1.625 L 2.25 0 L -0.171875 0 L 3.546875 -8.40625 L 5.875 -8.40625 L 9.59375 0 L 7.125 0 Z M 5.765625 -3.390625 L 4.6875 -6.078125 L 3.609375 -3.390625 Z M 5.765625 -3.390625 "/></g></g></g><g fill="#ffffff" fill-opacity="1"><g transform="translate(119.63409, 25.559838)"><g><path d="M 0.84375 -8.40625 L 3.21875 -8.40625 L 3.21875 0 L 0.84375 0 Z M 0.84375 -8.40625 "/></g></g></g><g fill="#ffffff" fill-opacity="1"><g transform="translate(123.702098, 25.559838)"><g><path d="M 8.828125 -8.40625 L 8.828125 0 L 6.875 0 L 3.171875 -4.46875 L 3.171875 0 L 0.84375 0 L 0.84375 -8.40625 L 2.796875 -8.40625 L 6.5 -3.921875 L 6.5 -8.40625 Z M 8.828125 -8.40625 "/></g></g></g></svg>