<svg xmlns="http://www.w3.org/2000/svg" xmlns:xlink="http://www.w3.org/1999/xlink" width="1000" zoomAndPan="magnify" viewBox="0 0 750 374.999991" height="500" preserveAspectRatio="xMidYMid meet" version="1.0"><defs><g/></defs><g fill="#ffffff" fill-opacity="1"><g transform="translate(39.779104, 333.518475)"><g><path d="M 163.109375 0 L 121.484375 -60.125 L 75.546875 -60.125 L 75.546875 0 L 25.59375 0 L 25.59375 -215.84375 L 119.015625 -215.84375 C 138.140625 -215.84375 154.738281 -212.65625 168.8125 -206.28125 C 182.894531 -199.90625 193.738281 -190.859375 201.34375 -179.140625 C 208.945312 -167.429688 212.75 -153.554688 212.75 -137.515625 C 212.75 -121.484375 208.894531 -107.660156 201.1875 -96.046875 C 193.476562 -84.429688 182.535156 -75.539062 168.359375 -69.375 L 216.765625 0 Z M 162.1875 -137.515625 C 162.1875 -149.648438 158.28125 -158.953125 150.46875 -165.421875 C 142.65625 -171.898438 131.25 -175.140625 116.25 -175.140625 L 75.546875 -175.140625 L 75.546875 -99.90625 L 116.25 -99.90625 C 131.25 -99.90625 142.65625 -103.191406 150.46875 -109.765625 C 158.28125 -116.347656 162.1875 -125.597656 162.1875 -137.515625 Z M 162.1875 -137.515625 "/></g></g></g><g fill="#ffffff" fill-opacity="1"><g transform="translate(266.41034, 333.518475)"><g><path d="M 192.71875 -40.078125 L 192.71875 0 L 25.59375 0 L 25.59375 -215.84375 L 188.703125 -215.84375 L 188.703125 -175.75 L 75.234375 -175.75 L 75.234375 -128.890625 L 175.453125 -128.890625 L 175.453125 -90.03125 L 75.234375 -90.03125 L 75.234375 -40.078125 Z M 192.71875 -40.078125 "/></g></g><g transform="translate(473.307688, 333.518475)"><g><path d="M 161.578125 0 L 109.46875 -74.921875 L 58.28125 0 L 0.921875 0 L 80.78125 -109.765625 L 4.9375 -215.84375 L 61.671875 -215.84375 L 111.3125 -145.84375 L 160.03125 -215.84375 L 213.984375 -215.84375 L 138.75 -111.625 L 219.234375 0 Z M 161.578125 0 "/></g></g></g><g fill="#ffffff" fill-opacity="1"><g transform="translate(63.808067, 78.488043)"><g><path d="M 27.09375 -41.96875 C 31.96875 -41.96875 35.753906 -40.894531 38.453125 -38.75 C 41.148438 -36.613281 42.5 -33.585938 42.5 -29.671875 C 42.5 -26.117188 41.707031 -23.070312 40.125 -20.53125 C 38.550781 -18 36.285156 -16.0625 33.328125 -14.71875 C 30.367188 -13.375 26.875 -12.703125 22.84375 -12.703125 L 11.625 -12.703125 L 9.109375 0 L 3.125 0 L 11.515625 -41.96875 Z M 22.96875 -17.921875 C 27.28125 -17.921875 30.613281 -18.878906 32.96875 -20.796875 C 35.332031 -22.722656 36.515625 -25.503906 36.515625 -29.140625 C 36.515625 -31.617188 35.65625 -33.503906 33.9375 -34.796875 C 32.21875 -36.097656 29.757812 -36.75 26.5625 -36.75 L 16.484375 -36.75 L 12.703125 -17.921875 Z M 22.96875 -17.921875 "/></g></g></g><g fill="#ffffff" fill-opacity="1"><g transform="translate(128.070446, 78.488043)"><g><path d="M 23.328125 0.484375 C 19.203125 0.484375 15.660156 -0.253906 12.703125 -1.734375 C 9.753906 -3.210938 7.5 -5.28125 5.9375 -7.9375 C 4.375 -10.601562 3.59375 -13.691406 3.59375 -17.203125 C 3.59375 -21.878906 4.648438 -26.132812 6.765625 -29.96875 C 8.890625 -33.8125 11.878906 -36.851562 15.734375 -39.09375 C 19.585938 -41.332031 24.035156 -42.453125 29.078125 -42.453125 C 33.191406 -42.453125 36.738281 -41.710938 39.71875 -40.234375 C 42.695312 -38.753906 44.960938 -36.679688 46.515625 -34.015625 C 48.078125 -31.359375 48.859375 -28.273438 48.859375 -24.765625 C 48.859375 -20.085938 47.796875 -15.828125 45.671875 -11.984375 C 43.554688 -8.148438 40.5625 -5.113281 36.6875 -2.875 C 32.8125 -0.632812 28.359375 0.484375 23.328125 0.484375 Z M 23.859375 -4.859375 C 27.617188 -4.859375 30.9375 -5.734375 33.8125 -7.484375 C 36.6875 -9.242188 38.90625 -11.613281 40.46875 -14.59375 C 42.03125 -17.570312 42.8125 -20.84375 42.8125 -24.40625 C 42.8125 -28.28125 41.582031 -31.363281 39.125 -33.65625 C 36.664062 -35.957031 33.15625 -37.109375 28.59375 -37.109375 C 24.84375 -37.109375 21.523438 -36.226562 18.640625 -34.46875 C 15.765625 -32.707031 13.535156 -30.328125 11.953125 -27.328125 C 10.378906 -24.335938 9.59375 -21.082031 9.59375 -17.5625 C 9.59375 -13.6875 10.832031 -10.597656 13.3125 -8.296875 C 15.789062 -6.003906 19.304688 -4.859375 23.859375 -4.859375 Z M 23.859375 -4.859375 "/></g></g></g><g fill="#ffffff" fill-opacity="1"><g transform="translate(199.405951, 78.488043)"><g><path d="M 70.859375 -41.96875 L 48.4375 0 L 42.09375 0 L 37.40625 -33.328125 L 19.125 0 L 12.765625 0 L 7.140625 -41.96875 L 13.015625 -41.96875 L 17.5625 -7.734375 L 36.15625 -41.96875 L 41.734375 -41.96875 L 46.40625 -7.671875 L 64.875 -41.96875 Z M 70.859375 -41.96875 "/></g></g></g><g fill="#ffffff" fill-opacity="1"><g transform="translate(287.884822, 78.488043)"><g><path d="M 16.421875 -36.75 L 13.84375 -23.859375 L 34.953125 -23.859375 L 33.9375 -18.765625 L 12.828125 -18.765625 L 10.125 -5.21875 L 34.65625 -5.21875 L 33.640625 0 L 3.125 0 L 11.515625 -41.96875 L 41.125 -41.96875 L 40.109375 -36.75 Z M 16.421875 -36.75 "/></g></g></g><g fill="#ffffff" fill-opacity="1"><g transform="translate(349.03023, 78.488043)"><g><path d="M 42.625 -29.671875 C 42.625 -25.554688 41.523438 -22.117188 39.328125 -19.359375 C 37.128906 -16.609375 34.03125 -14.710938 30.03125 -13.671875 L 37.703125 0 L 31.359375 0 L 24.046875 -12.828125 L 11.6875 -12.828125 L 9.171875 0 L 3.125 0 L 11.515625 -41.96875 L 27.15625 -41.96875 C 32.070312 -41.96875 35.878906 -40.894531 38.578125 -38.75 C 41.273438 -36.613281 42.625 -33.585938 42.625 -29.671875 Z M 23.078125 -17.921875 C 27.398438 -17.921875 30.738281 -18.878906 33.09375 -20.796875 C 35.445312 -22.722656 36.625 -25.503906 36.625 -29.140625 C 36.625 -31.660156 35.765625 -33.554688 34.046875 -34.828125 C 32.328125 -36.109375 29.851562 -36.75 26.625 -36.75 L 16.484375 -36.75 L 12.703125 -17.921875 Z M 23.078125 -17.921875 "/></g></g></g><g fill="#ffffff" fill-opacity="1"><g transform="translate(413.592314, 78.488043)"><g><path d="M 16.421875 -36.75 L 13.84375 -23.859375 L 34.953125 -23.859375 L 33.9375 -18.765625 L 12.828125 -18.765625 L 10.125 -5.21875 L 34.65625 -5.21875 L 33.640625 0 L 3.125 0 L 11.515625 -41.96875 L 41.125 -41.96875 L 40.109375 -36.75 Z M 16.421875 -36.75 "/></g></g></g><g fill="#ffffff" fill-opacity="1"><g transform="translate(474.737722, 78.488043)"><g><path d="M 11.515625 -41.96875 L 27.9375 -41.96875 C 32.132812 -41.96875 35.738281 -41.253906 38.75 -39.828125 C 41.769531 -38.410156 44.066406 -36.414062 45.640625 -33.84375 C 47.222656 -31.269531 48.015625 -28.242188 48.015625 -24.765625 C 48.015625 -19.890625 46.925781 -15.570312 44.75 -11.8125 C 42.570312 -8.050781 39.515625 -5.140625 35.578125 -3.078125 C 31.640625 -1.023438 27.078125 0 21.890625 0 L 3.125 0 Z M 22.0625 -5.21875 C 26.101562 -5.21875 29.617188 -6.035156 32.609375 -7.671875 C 35.609375 -9.304688 37.914062 -11.570312 39.53125 -14.46875 C 41.15625 -17.375 41.96875 -20.6875 41.96875 -24.40625 C 41.96875 -28.28125 40.726562 -31.304688 38.25 -33.484375 C 35.769531 -35.660156 32.132812 -36.75 27.34375 -36.75 L 16.421875 -36.75 L 10.125 -5.21875 Z M 22.0625 -5.21875 "/></g></g></g><g fill="#ffffff" fill-opacity="1"><g transform="translate(545.234045, 78.488043)"><g/></g></g><g fill="#ffffff" fill-opacity="1"><g transform="translate(582.342788, 78.488043)"><g><path d="M 35.609375 -21.640625 C 37.492188 -21.003906 38.953125 -19.96875 39.984375 -18.53125 C 41.023438 -17.09375 41.546875 -15.289062 41.546875 -13.125 C 41.546875 -8.894531 39.914062 -5.648438 36.65625 -3.390625 C 33.40625 -1.128906 28.960938 0 23.328125 0 L 3.125 0 L 11.515625 -41.96875 L 30.09375 -41.96875 C 34.332031 -41.96875 37.597656 -41.175781 39.890625 -39.59375 C 42.191406 -38.019531 43.34375 -35.734375 43.34375 -32.734375 C 43.34375 -30.015625 42.632812 -27.707031 41.21875 -25.8125 C 39.800781 -23.914062 37.929688 -22.523438 35.609375 -21.640625 Z M 16.484375 -37.109375 L 13.796875 -23.6875 L 26.078125 -23.6875 C 29.472656 -23.6875 32.160156 -24.375 34.140625 -25.75 C 36.117188 -27.125 37.109375 -29.132812 37.109375 -31.78125 C 37.109375 -33.570312 36.398438 -34.90625 34.984375 -35.78125 C 33.566406 -36.664062 31.519531 -37.109375 28.84375 -37.109375 Z M 23.734375 -4.859375 C 27.535156 -4.859375 30.460938 -5.566406 32.515625 -6.984375 C 34.578125 -8.398438 35.609375 -10.425781 35.609375 -13.0625 C 35.609375 -15.144531 34.878906 -16.625 33.421875 -17.5 C 31.960938 -18.382812 29.773438 -18.828125 26.859375 -18.828125 L 12.828125 -18.828125 L 10.078125 -4.859375 Z M 23.734375 -4.859375 "/></g></g></g><g fill="#ffffff" fill-opacity="1"><g transform="translate(648.703133, 78.488043)"><g><path d="M 22.0625 -14.328125 L 19.1875 0 L 13.1875 0 L 16.125 -14.6875 L 5.03125 -41.96875 L 10.90625 -41.96875 L 19.96875 -19.71875 L 37.890625 -41.96875 L 44.25 -41.96875 Z M 22.0625 -14.328125 "/></g></g></g></svg>