<svg xmlns="http://www.w3.org/2000/svg" xmlns:xlink="http://www.w3.org/1999/xlink" width="400" zoomAndPan="magnify" viewBox="0 0 300 187.499995" height="250" preserveAspectRatio="xMidYMid meet" version="1.0"><defs><g/></defs><g fill="#ffffff" fill-opacity="1"><g transform="translate(2.211437, 127.509843)"><g><path d="M 40.925781 0 L 53.496094 0 L 36.0625 -27.894531 C 42.300781 -29.636719 50.191406 -34.132812 50.191406 -45.511719 C 50.191406 -64.230469 28.722656 -64.230469 28.722656 -64.230469 L 7.339844 -64.230469 L 7.339844 -53.496094 L 17.527344 -37.4375 L 7.339844 -37.4375 L 7.339844 0 L 18.078125 0 L 18.078125 -26.792969 L 24.222656 -26.792969 Z M 30.097656 -37.53125 L 20.09375 -53.496094 L 28.722656 -53.496094 C 28.722656 -53.496094 39.457031 -53.496094 39.457031 -45.511719 C 39.457031 -39.179688 32.941406 -37.804688 30.097656 -37.53125 Z M 30.097656 -37.53125 "/></g></g></g><g fill="#ffffff" fill-opacity="1"><g transform="translate(54.698038, 127.509843)"><g><path d="M 26.242188 -53.863281 L 12.753906 -28.90625 L 21.65625 -28.90625 C 28.261719 -28.90625 31.015625 -24.042969 31.015625 -19.269531 C 31.015625 -13.214844 27.894531 -10.09375 22.113281 -10.09375 C 17.710938 -10.09375 13.214844 -13.121094 13.214844 -18.167969 L 2.660156 -18.167969 C 2.660156 -6.699219 11.746094 0.550781 22.113281 0.550781 C 32.390625 0.550781 41.84375 -4.863281 41.84375 -18.8125 C 41.84375 -29.179688 36.519531 -35.511719 28.171875 -37.4375 L 42.578125 -64.230469 L 4.773438 -64.230469 L 4.773438 -53.863281 Z M 26.242188 -53.863281 "/></g></g></g><g fill="#ffffff" fill-opacity="1"><g transform="translate(96.265218, 127.509843)"><g><path d="M 17.984375 -10.734375 L 17.984375 -64.230469 L 7.25 -64.230469 L 7.25 0 L 41.75 0 L 41.75 -10.734375 Z M 17.984375 -10.734375 "/></g></g></g><g fill="#ffffff" fill-opacity="1"><g transform="translate(138.566483, 127.509843)"><g><path d="M 29.085938 -17.433594 C 42.210938 -17.433594 52.945312 -28.171875 52.945312 -41.292969 C 52.945312 -54.414062 42.210938 -65.148438 29.085938 -65.148438 C 15.964844 -65.148438 5.230469 -54.414062 5.230469 -41.292969 C 5.230469 -28.171875 15.964844 -17.433594 29.085938 -17.433594 Z M 29.085938 -54.503906 C 36.429688 -54.503906 42.300781 -48.632812 42.300781 -41.292969 C 42.300781 -33.949219 36.429688 -28.078125 29.085938 -28.078125 C 21.746094 -28.078125 15.875 -33.949219 15.875 -41.292969 C 15.875 -48.632812 21.746094 -54.503906 29.085938 -54.503906 Z M 50.007812 0 L 50.007812 -10.644531 L 7.617188 -10.644531 L 7.617188 0 Z M 50.007812 0 "/></g></g></g><g fill="#ffffff" fill-opacity="1"><g transform="translate(193.438846, 127.509843)"><g><path d="M 40.097656 0 L 40.097656 -64.230469 L 29.453125 -64.230469 L 2.9375 -29.546875 L 2.9375 -19.453125 L 29.453125 -19.453125 L 29.453125 0 Z M 14.222656 -28.8125 L 29.453125 -47.992188 L 29.453125 -28.8125 Z M 14.222656 -28.8125 "/></g></g></g><g fill="#ffffff" fill-opacity="1"><g transform="translate(237.024753, 127.509843)"><g><path d="M 17.984375 -64.230469 L 7.25 -64.230469 L 7.25 0 L 17.984375 0 C 33.949219 0 55.515625 -4.679688 55.515625 -32.117188 C 55.515625 -60.652344 33.585938 -64.230469 17.984375 -64.230469 Z M 17.984375 -10.460938 L 17.984375 -53.769531 C 17.984375 -53.769531 44.6875 -57.808594 44.6875 -32.117188 C 44.6875 -6.789062 17.984375 -10.460938 17.984375 -10.460938 Z M 17.984375 -10.460938 "/></g></g></g></svg>