<svg xmlns="http://www.w3.org/2000/svg" xmlns:xlink="http://www.w3.org/1999/xlink" width="250" zoomAndPan="magnify" viewBox="0 0 187.5 44.999999" height="60" preserveAspectRatio="xMidYMid meet" version="1.0"><defs><g/><clipPath id="8cd6259afc"><path d="M 0 0.0585938 L 187 0.0585938 L 187 44.9375 L 0 44.9375 Z M 0 0.0585938 " clip-rule="nonzero"/></clipPath></defs><g clip-path="url(#8cd6259afc)"><path fill="#ffffff" d="M 0 0.0585938 L 187.5 0.0585938 L 187.5 45.058594 L 0 45.058594 Z M 0 0.0585938 " fill-opacity="1" fill-rule="nonzero"/><path fill="#000000" d="M 0 0.0585938 L 187.5 0.0585938 L 187.5 45.058594 L 0 45.058594 Z M 0 0.0585938 " fill-opacity="1" fill-rule="nonzero"/><path stroke-linecap="butt" transform="matrix(0.75, 0, 0, 0.75, 0, 0.0598411)" fill="none" stroke-linejoin="miter" d="M 0 -0.0016632 L 250.000021 -0.0016632 L 250.000021 59.998342 L 0 59.998342 L 0 -0.0016632 " stroke="#ffffff" stroke-width="6" stroke-opacity="1" stroke-miterlimit="4"/></g><g fill="#ffffff" fill-opacity="1"><g transform="translate(27.096678, 27.059833)"><g><path d="M 4.421875 0.203125 C 3.628906 0.203125 2.859375 0.101562 2.109375 -0.09375 C 1.367188 -0.289062 0.765625 -0.550781 0.296875 -0.875 L 1.203125 -2.921875 C 1.640625 -2.628906 2.144531 -2.394531 2.71875 -2.21875 C 3.300781 -2.039062 3.875 -1.953125 4.4375 -1.953125 C 5.5 -1.953125 6.03125 -2.222656 6.03125 -2.765625 C 6.03125 -3.035156 5.878906 -3.238281 5.578125 -3.375 C 5.273438 -3.507812 4.785156 -3.65625 4.109375 -3.8125 C 3.378906 -3.96875 2.765625 -4.132812 2.265625 -4.3125 C 1.773438 -4.5 1.351562 -4.789062 1 -5.1875 C 0.644531 -5.59375 0.46875 -6.132812 0.46875 -6.8125 C 0.46875 -7.414062 0.628906 -7.957031 0.953125 -8.4375 C 1.273438 -8.914062 1.757812 -9.296875 2.40625 -9.578125 C 3.0625 -9.859375 3.859375 -10 4.796875 -10 C 5.441406 -10 6.078125 -9.925781 6.703125 -9.78125 C 7.328125 -9.632812 7.878906 -9.421875 8.359375 -9.140625 L 7.5 -7.078125 C 6.570312 -7.585938 5.664062 -7.84375 4.78125 -7.84375 C 4.238281 -7.84375 3.835938 -7.757812 3.578125 -7.59375 C 3.328125 -7.425781 3.203125 -7.210938 3.203125 -6.953125 C 3.203125 -6.691406 3.351562 -6.492188 3.65625 -6.359375 C 3.957031 -6.234375 4.4375 -6.101562 5.09375 -5.96875 C 5.84375 -5.800781 6.460938 -5.628906 6.953125 -5.453125 C 7.441406 -5.273438 7.863281 -4.984375 8.21875 -4.578125 C 8.582031 -4.179688 8.765625 -3.644531 8.765625 -2.96875 C 8.765625 -2.382812 8.597656 -1.851562 8.265625 -1.375 C 7.941406 -0.894531 7.453125 -0.507812 6.796875 -0.21875 C 6.148438 0.0625 5.359375 0.203125 4.421875 0.203125 Z M 4.421875 0.203125 "/></g></g></g><g fill="#ffffff" fill-opacity="1"><g transform="translate(36.149629, 27.059833)"><g><path d="M 7.546875 -1.90625 L 3.40625 -1.90625 L 2.625 0 L -0.203125 0 L 4.125 -9.796875 L 6.859375 -9.796875 L 11.203125 0 L 8.3125 0 Z M 6.734375 -3.953125 L 5.46875 -7.078125 L 4.21875 -3.953125 Z M 6.734375 -3.953125 "/></g></g></g><g fill="#ffffff" fill-opacity="1"><g transform="translate(47.147492, 27.059833)"><g><path d="M 10.921875 -9.796875 L 6.71875 0 L 3.984375 0 L -0.203125 -9.796875 L 2.796875 -9.796875 L 5.453125 -3.421875 L 8.171875 -9.796875 Z M 10.921875 -9.796875 "/></g></g></g><g fill="#ffffff" fill-opacity="1"><g transform="translate(57.865513, 27.059833)"><g><path d="M 8.84375 -2.140625 L 8.84375 0 L 0.984375 0 L 0.984375 -9.796875 L 8.671875 -9.796875 L 8.671875 -7.65625 L 3.71875 -7.65625 L 3.71875 -6 L 8.078125 -6 L 8.078125 -3.9375 L 3.71875 -3.9375 L 3.71875 -2.140625 Z M 8.84375 -2.140625 "/></g></g></g><g fill="#ffffff" fill-opacity="1"><g transform="translate(67.268264, 27.059833)"><g/></g></g><g fill="#ffffff" fill-opacity="1"><g transform="translate(71.339991, 27.059833)"><g><path d="M 10.296875 -9.796875 L 10.296875 0 L 7.53125 0 L 7.53125 -3.828125 L 3.75 -3.828125 L 3.75 0 L 0.984375 0 L 0.984375 -9.796875 L 3.75 -9.796875 L 3.75 -6.125 L 7.53125 -6.125 L 7.53125 -9.796875 Z M 10.296875 -9.796875 "/></g></g></g><g fill="#ffffff" fill-opacity="1"><g transform="translate(82.617696, 27.059833)"><g><path d="M 0.984375 -9.796875 L 3.75 -9.796875 L 3.75 0 L 0.984375 0 Z M 0.984375 -9.796875 "/></g></g></g><g fill="#ffffff" fill-opacity="1"><g transform="translate(87.361043, 27.059833)"><g><path d="M 7.546875 -5.109375 L 10 -5.109375 L 10 -1.046875 C 9.4375 -0.648438 8.789062 -0.34375 8.0625 -0.125 C 7.332031 0.09375 6.601562 0.203125 5.875 0.203125 C 4.851562 0.203125 3.929688 -0.015625 3.109375 -0.453125 C 2.285156 -0.890625 1.640625 -1.492188 1.171875 -2.265625 C 0.703125 -3.046875 0.46875 -3.925781 0.46875 -4.90625 C 0.46875 -5.882812 0.703125 -6.757812 1.171875 -7.53125 C 1.640625 -8.300781 2.289062 -8.90625 3.125 -9.34375 C 3.957031 -9.78125 4.894531 -10 5.9375 -10 C 6.851562 -10 7.671875 -9.84375 8.390625 -9.53125 C 9.117188 -9.226562 9.726562 -8.785156 10.21875 -8.203125 L 8.453125 -6.609375 C 7.796875 -7.335938 7.003906 -7.703125 6.078125 -7.703125 C 5.234375 -7.703125 4.554688 -7.445312 4.046875 -6.9375 C 3.535156 -6.425781 3.28125 -5.75 3.28125 -4.90625 C 3.28125 -4.363281 3.394531 -3.878906 3.625 -3.453125 C 3.851562 -3.023438 4.175781 -2.691406 4.59375 -2.453125 C 5.019531 -2.210938 5.503906 -2.09375 6.046875 -2.09375 C 6.578125 -2.09375 7.078125 -2.203125 7.546875 -2.421875 Z M 7.546875 -5.109375 "/></g></g></g><g fill="#ffffff" fill-opacity="1"><g transform="translate(98.135025, 27.059833)"><g><path d="M 10.296875 -9.796875 L 10.296875 0 L 7.53125 0 L 7.53125 -3.828125 L 3.75 -3.828125 L 3.75 0 L 0.984375 0 L 0.984375 -9.796875 L 3.75 -9.796875 L 3.75 -6.125 L 7.53125 -6.125 L 7.53125 -9.796875 Z M 10.296875 -9.796875 "/></g></g></g><g fill="#ffffff" fill-opacity="1"><g transform="translate(109.41273, 27.059833)"><g><path d="M 4.421875 0.203125 C 3.628906 0.203125 2.859375 0.101562 2.109375 -0.09375 C 1.367188 -0.289062 0.765625 -0.550781 0.296875 -0.875 L 1.203125 -2.921875 C 1.640625 -2.628906 2.144531 -2.394531 2.71875 -2.21875 C 3.300781 -2.039062 3.875 -1.953125 4.4375 -1.953125 C 5.5 -1.953125 6.03125 -2.222656 6.03125 -2.765625 C 6.03125 -3.035156 5.878906 -3.238281 5.578125 -3.375 C 5.273438 -3.507812 4.785156 -3.65625 4.109375 -3.8125 C 3.378906 -3.96875 2.765625 -4.132812 2.265625 -4.3125 C 1.773438 -4.5 1.351562 -4.789062 1 -5.1875 C 0.644531 -5.59375 0.46875 -6.132812 0.46875 -6.8125 C 0.46875 -7.414062 0.628906 -7.957031 0.953125 -8.4375 C 1.273438 -8.914062 1.757812 -9.296875 2.40625 -9.578125 C 3.0625 -9.859375 3.859375 -10 4.796875 -10 C 5.441406 -10 6.078125 -9.925781 6.703125 -9.78125 C 7.328125 -9.632812 7.878906 -9.421875 8.359375 -9.140625 L 7.5 -7.078125 C 6.570312 -7.585938 5.664062 -7.84375 4.78125 -7.84375 C 4.238281 -7.84375 3.835938 -7.757812 3.578125 -7.59375 C 3.328125 -7.425781 3.203125 -7.210938 3.203125 -6.953125 C 3.203125 -6.691406 3.351562 -6.492188 3.65625 -6.359375 C 3.957031 -6.234375 4.4375 -6.101562 5.09375 -5.96875 C 5.84375 -5.800781 6.460938 -5.628906 6.953125 -5.453125 C 7.441406 -5.273438 7.863281 -4.984375 8.21875 -4.578125 C 8.582031 -4.179688 8.765625 -3.644531 8.765625 -2.96875 C 8.765625 -2.382812 8.597656 -1.851562 8.265625 -1.375 C 7.941406 -0.894531 7.453125 -0.507812 6.796875 -0.21875 C 6.148438 0.0625 5.359375 0.203125 4.421875 0.203125 Z M 4.421875 0.203125 "/></g></g></g><g fill="#ffffff" fill-opacity="1"><g transform="translate(118.465681, 27.059833)"><g><path d="M 5.859375 0.203125 C 4.835938 0.203125 3.914062 -0.015625 3.09375 -0.453125 C 2.28125 -0.890625 1.640625 -1.492188 1.171875 -2.265625 C 0.703125 -3.046875 0.46875 -3.925781 0.46875 -4.90625 C 0.46875 -5.882812 0.703125 -6.757812 1.171875 -7.53125 C 1.640625 -8.300781 2.28125 -8.90625 3.09375 -9.34375 C 3.914062 -9.78125 4.835938 -10 5.859375 -10 C 6.753906 -10 7.5625 -9.835938 8.28125 -9.515625 C 9 -9.203125 9.597656 -8.742188 10.078125 -8.140625 L 8.3125 -6.546875 C 7.675781 -7.316406 6.90625 -7.703125 6 -7.703125 C 5.46875 -7.703125 4.992188 -7.582031 4.578125 -7.34375 C 4.171875 -7.113281 3.851562 -6.785156 3.625 -6.359375 C 3.394531 -5.929688 3.28125 -5.445312 3.28125 -4.90625 C 3.28125 -4.351562 3.394531 -3.863281 3.625 -3.4375 C 3.851562 -3.007812 4.171875 -2.675781 4.578125 -2.4375 C 4.992188 -2.207031 5.46875 -2.09375 6 -2.09375 C 6.90625 -2.09375 7.675781 -2.476562 8.3125 -3.25 L 10.078125 -1.65625 C 9.597656 -1.050781 9 -0.585938 8.28125 -0.265625 C 7.5625 0.046875 6.753906 0.203125 5.859375 0.203125 Z M 5.859375 0.203125 "/></g></g></g><g fill="#ffffff" fill-opacity="1"><g transform="translate(128.791913, 27.059833)"><g><path d="M 5.921875 0.203125 C 4.890625 0.203125 3.957031 -0.015625 3.125 -0.453125 C 2.300781 -0.898438 1.648438 -1.507812 1.171875 -2.28125 C 0.703125 -3.050781 0.46875 -3.925781 0.46875 -4.90625 C 0.46875 -5.875 0.703125 -6.742188 1.171875 -7.515625 C 1.648438 -8.296875 2.300781 -8.90625 3.125 -9.34375 C 3.957031 -9.78125 4.890625 -10 5.921875 -10 C 6.953125 -10 7.878906 -9.78125 8.703125 -9.34375 C 9.535156 -8.90625 10.1875 -8.296875 10.65625 -7.515625 C 11.132812 -6.742188 11.375 -5.875 11.375 -4.90625 C 11.375 -3.925781 11.132812 -3.050781 10.65625 -2.28125 C 10.1875 -1.507812 9.535156 -0.898438 8.703125 -0.453125 C 7.878906 -0.015625 6.953125 0.203125 5.921875 0.203125 Z M 5.921875 -2.09375 C 6.410156 -2.09375 6.859375 -2.207031 7.265625 -2.4375 C 7.671875 -2.675781 7.988281 -3.007812 8.21875 -3.4375 C 8.445312 -3.863281 8.5625 -4.351562 8.5625 -4.90625 C 8.5625 -5.445312 8.445312 -5.929688 8.21875 -6.359375 C 7.988281 -6.785156 7.671875 -7.113281 7.265625 -7.34375 C 6.859375 -7.582031 6.410156 -7.703125 5.921875 -7.703125 C 5.429688 -7.703125 4.984375 -7.582031 4.578125 -7.34375 C 4.171875 -7.113281 3.851562 -6.785156 3.625 -6.359375 C 3.394531 -5.929688 3.28125 -5.445312 3.28125 -4.90625 C 3.28125 -4.351562 3.394531 -3.863281 3.625 -3.4375 C 3.851562 -3.007812 4.171875 -2.675781 4.578125 -2.4375 C 4.984375 -2.207031 5.429688 -2.09375 5.921875 -2.09375 Z M 5.921875 -2.09375 "/></g></g></g><g fill="#ffffff" fill-opacity="1"><g transform="translate(140.629303, 27.059833)"><g><path d="M 5.265625 -2.609375 L 3.75 -2.609375 L 3.75 0 L 0.984375 0 L 0.984375 -9.796875 L 5.453125 -9.796875 C 6.347656 -9.796875 7.117188 -9.648438 7.765625 -9.359375 C 8.421875 -9.066406 8.925781 -8.644531 9.28125 -8.09375 C 9.632812 -7.550781 9.8125 -6.910156 9.8125 -6.171875 C 9.8125 -5.460938 9.644531 -4.84375 9.3125 -4.3125 C 8.976562 -3.789062 8.503906 -3.378906 7.890625 -3.078125 L 10.015625 0 L 7.046875 0 Z M 7.015625 -6.171875 C 7.015625 -6.628906 6.867188 -6.984375 6.578125 -7.234375 C 6.285156 -7.484375 5.859375 -7.609375 5.296875 -7.609375 L 3.75 -7.609375 L 3.75 -4.75 L 5.296875 -4.75 C 5.859375 -4.75 6.285156 -4.867188 6.578125 -5.109375 C 6.867188 -5.359375 7.015625 -5.710938 7.015625 -6.171875 Z M 7.015625 -6.171875 "/></g></g></g><g fill="#ffffff" fill-opacity="1"><g transform="translate(150.983528, 27.059833)"><g><path d="M 8.84375 -2.140625 L 8.84375 0 L 0.984375 0 L 0.984375 -9.796875 L 8.671875 -9.796875 L 8.671875 -7.65625 L 3.71875 -7.65625 L 3.71875 -6 L 8.078125 -6 L 8.078125 -3.9375 L 3.71875 -3.9375 L 3.71875 -2.140625 Z M 8.84375 -2.140625 "/></g></g></g></svg>