<svg xmlns="http://www.w3.org/2000/svg" xmlns:xlink="http://www.w3.org/1999/xlink" width="250" zoomAndPan="magnify" viewBox="0 0 187.5 44.999999" height="60" preserveAspectRatio="xMidYMid meet" version="1.0"><defs><g/><clipPath id="75e50a1d93"><path d="M 0 0.0585938 L 187 0.0585938 L 187 44.9375 L 0 44.9375 Z M 0 0.0585938 " clip-rule="nonzero"/></clipPath></defs><g clip-path="url(#75e50a1d93)"><path fill="#ffffff" d="M 0 0.0585938 L 187.5 0.0585938 L 187.5 45.058594 L 0 45.058594 Z M 0 0.0585938 " fill-opacity="1" fill-rule="nonzero"/><path fill="#000000" d="M 0 0.0585938 L 187.5 0.0585938 L 187.5 45.058594 L 0 45.058594 Z M 0 0.0585938 " fill-opacity="1" fill-rule="nonzero"/><path fill="#ffff61" d="M 0 0.0585938 L 187.5 0.0585938 L 187.5 45.058594 L 0 45.058594 Z M 0 0.0585938 " fill-opacity="1" fill-rule="nonzero"/><path stroke-linecap="butt" transform="matrix(0.75, 0, 0, 0.75, 0, 0.0598411)" fill="none" stroke-linejoin="miter" d="M 0 -0.0016632 L 250.000021 -0.0016632 L 250.000021 59.998342 L 0 59.998342 L 0 -0.0016632 " stroke="#ffff61" stroke-width="6" stroke-opacity="1" stroke-miterlimit="4"/></g><g fill="#000000" fill-opacity="1"><g transform="translate(18.875975, 25.55984)"><g><path d="M 3.796875 0.171875 C 3.109375 0.171875 2.445312 0.0859375 1.8125 -0.078125 C 1.175781 -0.253906 0.65625 -0.476562 0.25 -0.75 L 1.03125 -2.515625 C 1.40625 -2.265625 1.835938 -2.0625 2.328125 -1.90625 C 2.828125 -1.757812 3.316406 -1.6875 3.796875 -1.6875 C 4.710938 -1.6875 5.171875 -1.910156 5.171875 -2.359375 C 5.171875 -2.597656 5.039062 -2.773438 4.78125 -2.890625 C 4.519531 -3.015625 4.101562 -3.140625 3.53125 -3.265625 C 2.894531 -3.398438 2.363281 -3.546875 1.9375 -3.703125 C 1.519531 -3.859375 1.15625 -4.109375 0.84375 -4.453125 C 0.539062 -4.796875 0.390625 -5.257812 0.390625 -5.84375 C 0.390625 -6.351562 0.53125 -6.8125 0.8125 -7.21875 C 1.09375 -7.632812 1.507812 -7.960938 2.0625 -8.203125 C 2.625 -8.441406 3.304688 -8.5625 4.109375 -8.5625 C 4.660156 -8.5625 5.203125 -8.5 5.734375 -8.375 C 6.273438 -8.257812 6.75 -8.082031 7.15625 -7.84375 L 6.4375 -6.078125 C 5.632812 -6.503906 4.859375 -6.71875 4.109375 -6.71875 C 3.628906 -6.71875 3.28125 -6.644531 3.0625 -6.5 C 2.851562 -6.363281 2.75 -6.1875 2.75 -5.96875 C 2.75 -5.738281 2.875 -5.566406 3.125 -5.453125 C 3.382812 -5.347656 3.800781 -5.234375 4.375 -5.109375 C 5.007812 -4.972656 5.535156 -4.828125 5.953125 -4.671875 C 6.378906 -4.515625 6.742188 -4.265625 7.046875 -3.921875 C 7.359375 -3.585938 7.515625 -3.128906 7.515625 -2.546875 C 7.515625 -2.035156 7.375 -1.578125 7.09375 -1.171875 C 6.8125 -0.765625 6.390625 -0.4375 5.828125 -0.1875 C 5.265625 0.0507812 4.585938 0.171875 3.796875 0.171875 Z M 3.796875 0.171875 "/></g></g></g><g fill="#000000" fill-opacity="1"><g transform="translate(26.63999, 25.55984)"><g><path d="M 6.46875 -1.625 L 2.921875 -1.625 L 2.25 0 L -0.171875 0 L 3.546875 -8.40625 L 5.875 -8.40625 L 9.59375 0 L 7.125 0 Z M 5.765625 -3.390625 L 4.6875 -6.078125 L 3.609375 -3.390625 Z M 5.765625 -3.390625 "/></g></g></g><g fill="#000000" fill-opacity="1"><g transform="translate(36.072004, 25.55984)"><g><path d="M 9.359375 -8.40625 L 5.765625 0 L 3.421875 0 L -0.171875 -8.40625 L 2.40625 -8.40625 L 4.6875 -2.921875 L 7.015625 -8.40625 Z M 9.359375 -8.40625 "/></g></g></g><g fill="#000000" fill-opacity="1"><g transform="translate(45.264023, 25.55984)"><g><path d="M 7.578125 -1.84375 L 7.578125 0 L 0.84375 0 L 0.84375 -8.40625 L 7.421875 -8.40625 L 7.421875 -6.5625 L 3.1875 -6.5625 L 3.1875 -5.140625 L 6.921875 -5.140625 L 6.921875 -3.375 L 3.1875 -3.375 L 3.1875 -1.84375 Z M 7.578125 -1.84375 "/></g></g></g><g fill="#000000" fill-opacity="1"><g transform="translate(53.328045, 25.55984)"><g/></g></g><g fill="#000000" fill-opacity="1"><g transform="translate(56.820049, 25.55984)"><g><path d="M 8.828125 -8.40625 L 8.828125 0 L 6.875 0 L 3.171875 -4.46875 L 3.171875 0 L 0.84375 0 L 0.84375 -8.40625 L 2.796875 -8.40625 L 6.5 -3.921875 L 6.5 -8.40625 Z M 8.828125 -8.40625 "/></g></g></g><g fill="#000000" fill-opacity="1"><g transform="translate(66.492068, 25.55984)"><g><path d="M 7.578125 -1.84375 L 7.578125 0 L 0.84375 0 L 0.84375 -8.40625 L 7.421875 -8.40625 L 7.421875 -6.5625 L 3.1875 -6.5625 L 3.1875 -5.140625 L 6.921875 -5.140625 L 6.921875 -3.375 L 3.1875 -3.375 L 3.1875 -1.84375 Z M 7.578125 -1.84375 "/></g></g></g><g fill="#000000" fill-opacity="1"><g transform="translate(74.556089, 25.55984)"><g><path d="M 14.015625 -8.40625 L 11.296875 0 L 8.75 0 L 7.140625 -5.109375 L 5.453125 0 L 2.921875 0 L 0.1875 -8.40625 L 2.640625 -8.40625 L 4.328125 -3.03125 L 6.109375 -8.40625 L 8.296875 -8.40625 L 9.984375 -2.984375 L 11.75 -8.40625 Z M 14.015625 -8.40625 "/></g></g></g><g fill="#000000" fill-opacity="1"><g transform="translate(88.764123, 25.55984)"><g/></g></g><g fill="#000000" fill-opacity="1"><g transform="translate(92.256127, 25.55984)"><g><path d="M 8.828125 -8.40625 L 8.828125 0 L 6.453125 0 L 6.453125 -3.28125 L 3.21875 -3.28125 L 3.21875 0 L 0.84375 0 L 0.84375 -8.40625 L 3.21875 -8.40625 L 3.21875 -5.25 L 6.453125 -5.25 L 6.453125 -8.40625 Z M 8.828125 -8.40625 "/></g></g></g><g fill="#000000" fill-opacity="1"><g transform="translate(101.928146, 25.55984)"><g><path d="M 0.84375 -8.40625 L 3.21875 -8.40625 L 3.21875 0 L 0.84375 0 Z M 0.84375 -8.40625 "/></g></g></g><g fill="#000000" fill-opacity="1"><g transform="translate(105.996154, 25.55984)"><g><path d="M 6.46875 -4.375 L 8.5625 -4.375 L 8.5625 -0.90625 C 8.082031 -0.5625 7.53125 -0.296875 6.90625 -0.109375 C 6.28125 0.078125 5.660156 0.171875 5.046875 0.171875 C 4.160156 0.171875 3.363281 -0.015625 2.65625 -0.390625 C 1.957031 -0.765625 1.40625 -1.28125 1 -1.9375 C 0.601562 -2.601562 0.40625 -3.359375 0.40625 -4.203125 C 0.40625 -5.035156 0.601562 -5.785156 1 -6.453125 C 1.40625 -7.117188 1.960938 -7.632812 2.671875 -8 C 3.390625 -8.375 4.195312 -8.5625 5.09375 -8.5625 C 5.875 -8.5625 6.578125 -8.429688 7.203125 -8.171875 C 7.828125 -7.910156 8.347656 -7.53125 8.765625 -7.03125 L 7.25 -5.65625 C 6.675781 -6.28125 5.992188 -6.59375 5.203125 -6.59375 C 4.484375 -6.59375 3.90625 -6.375 3.46875 -5.9375 C 3.03125 -5.507812 2.8125 -4.929688 2.8125 -4.203125 C 2.8125 -3.734375 2.910156 -3.316406 3.109375 -2.953125 C 3.304688 -2.585938 3.582031 -2.300781 3.9375 -2.09375 C 4.300781 -1.894531 4.71875 -1.796875 5.1875 -1.796875 C 5.644531 -1.796875 6.070312 -1.890625 6.46875 -2.078125 Z M 6.46875 -4.375 "/></g></g></g><g fill="#000000" fill-opacity="1"><g transform="translate(115.23617, 25.55984)"><g><path d="M 8.828125 -8.40625 L 8.828125 0 L 6.453125 0 L 6.453125 -3.28125 L 3.21875 -3.28125 L 3.21875 0 L 0.84375 0 L 0.84375 -8.40625 L 3.21875 -8.40625 L 3.21875 -5.25 L 6.453125 -5.25 L 6.453125 -8.40625 Z M 8.828125 -8.40625 "/></g></g></g><g fill="#000000" fill-opacity="1"><g transform="translate(124.908189, 25.55984)"><g><path d="M 3.796875 0.171875 C 3.109375 0.171875 2.445312 0.0859375 1.8125 -0.078125 C 1.175781 -0.253906 0.65625 -0.476562 0.25 -0.75 L 1.03125 -2.515625 C 1.40625 -2.265625 1.835938 -2.0625 2.328125 -1.90625 C 2.828125 -1.757812 3.316406 -1.6875 3.796875 -1.6875 C 4.710938 -1.6875 5.171875 -1.910156 5.171875 -2.359375 C 5.171875 -2.597656 5.039062 -2.773438 4.78125 -2.890625 C 4.519531 -3.015625 4.101562 -3.140625 3.53125 -3.265625 C 2.894531 -3.398438 2.363281 -3.546875 1.9375 -3.703125 C 1.519531 -3.859375 1.15625 -4.109375 0.84375 -4.453125 C 0.539062 -4.796875 0.390625 -5.257812 0.390625 -5.84375 C 0.390625 -6.351562 0.53125 -6.8125 0.8125 -7.21875 C 1.09375 -7.632812 1.507812 -7.960938 2.0625 -8.203125 C 2.625 -8.441406 3.304688 -8.5625 4.109375 -8.5625 C 4.660156 -8.5625 5.203125 -8.5 5.734375 -8.375 C 6.273438 -8.257812 6.75 -8.082031 7.15625 -7.84375 L 6.4375 -6.078125 C 5.632812 -6.503906 4.859375 -6.71875 4.109375 -6.71875 C 3.628906 -6.71875 3.28125 -6.644531 3.0625 -6.5 C 2.851562 -6.363281 2.75 -6.1875 2.75 -5.96875 C 2.75 -5.738281 2.875 -5.566406 3.125 -5.453125 C 3.382812 -5.347656 3.800781 -5.234375 4.375 -5.109375 C 5.007812 -4.972656 5.535156 -4.828125 5.953125 -4.671875 C 6.378906 -4.515625 6.742188 -4.265625 7.046875 -3.921875 C 7.359375 -3.585938 7.515625 -3.128906 7.515625 -2.546875 C 7.515625 -2.035156 7.375 -1.578125 7.09375 -1.171875 C 6.8125 -0.765625 6.390625 -0.4375 5.828125 -0.1875 C 5.265625 0.0507812 4.585938 0.171875 3.796875 0.171875 Z M 3.796875 0.171875 "/></g></g></g><g fill="#000000" fill-opacity="1"><g transform="translate(132.672204, 25.55984)"><g><path d="M 5.03125 0.171875 C 4.144531 0.171875 3.351562 -0.015625 2.65625 -0.390625 C 1.957031 -0.765625 1.40625 -1.28125 1 -1.9375 C 0.601562 -2.601562 0.40625 -3.359375 0.40625 -4.203125 C 0.40625 -5.035156 0.601562 -5.785156 1 -6.453125 C 1.40625 -7.117188 1.957031 -7.632812 2.65625 -8 C 3.351562 -8.375 4.144531 -8.5625 5.03125 -8.5625 C 5.800781 -8.5625 6.492188 -8.425781 7.109375 -8.15625 C 7.722656 -7.882812 8.234375 -7.492188 8.640625 -6.984375 L 7.125 -5.609375 C 6.582031 -6.265625 5.921875 -6.59375 5.140625 -6.59375 C 4.691406 -6.59375 4.285156 -6.492188 3.921875 -6.296875 C 3.566406 -6.097656 3.289062 -5.816406 3.09375 -5.453125 C 2.90625 -5.085938 2.8125 -4.671875 2.8125 -4.203125 C 2.8125 -3.722656 2.90625 -3.300781 3.09375 -2.9375 C 3.289062 -2.582031 3.566406 -2.300781 3.921875 -2.09375 C 4.285156 -1.894531 4.691406 -1.796875 5.140625 -1.796875 C 5.921875 -1.796875 6.582031 -2.125 7.125 -2.78125 L 8.640625 -1.421875 C 8.234375 -0.898438 7.722656 -0.503906 7.109375 -0.234375 C 6.492188 0.0351562 5.800781 0.171875 5.03125 0.171875 Z M 5.03125 0.171875 "/></g></g></g><g fill="#000000" fill-opacity="1"><g transform="translate(141.528225, 25.55984)"><g><path d="M 5.078125 0.171875 C 4.191406 0.171875 3.394531 -0.015625 2.6875 -0.390625 C 1.976562 -0.765625 1.421875 -1.285156 1.015625 -1.953125 C 0.609375 -2.617188 0.40625 -3.367188 0.40625 -4.203125 C 0.40625 -5.035156 0.609375 -5.78125 1.015625 -6.4375 C 1.421875 -7.101562 1.976562 -7.625 2.6875 -8 C 3.394531 -8.375 4.191406 -8.5625 5.078125 -8.5625 C 5.960938 -8.5625 6.757812 -8.375 7.46875 -8 C 8.175781 -7.625 8.734375 -7.101562 9.140625 -6.4375 C 9.546875 -5.78125 9.75 -5.035156 9.75 -4.203125 C 9.75 -3.367188 9.546875 -2.617188 9.140625 -1.953125 C 8.734375 -1.285156 8.175781 -0.765625 7.46875 -0.390625 C 6.757812 -0.015625 5.960938 0.171875 5.078125 0.171875 Z M 5.078125 -1.796875 C 5.503906 -1.796875 5.890625 -1.894531 6.234375 -2.09375 C 6.578125 -2.300781 6.847656 -2.582031 7.046875 -2.9375 C 7.242188 -3.300781 7.34375 -3.722656 7.34375 -4.203125 C 7.34375 -4.671875 7.242188 -5.085938 7.046875 -5.453125 C 6.847656 -5.816406 6.578125 -6.097656 6.234375 -6.296875 C 5.890625 -6.492188 5.503906 -6.59375 5.078125 -6.59375 C 4.648438 -6.59375 4.265625 -6.492188 3.921875 -6.296875 C 3.578125 -6.097656 3.304688 -5.816406 3.109375 -5.453125 C 2.910156 -5.085938 2.8125 -4.671875 2.8125 -4.203125 C 2.8125 -3.722656 2.910156 -3.300781 3.109375 -2.9375 C 3.304688 -2.582031 3.578125 -2.300781 3.921875 -2.09375 C 4.265625 -1.894531 4.648438 -1.796875 5.078125 -1.796875 Z M 5.078125 -1.796875 "/></g></g></g><g fill="#000000" fill-opacity="1"><g transform="translate(151.680244, 25.55984)"><g><path d="M 4.515625 -2.234375 L 3.21875 -2.234375 L 3.21875 0 L 0.84375 0 L 0.84375 -8.40625 L 4.6875 -8.40625 C 5.4375 -8.40625 6.09375 -8.273438 6.65625 -8.015625 C 7.21875 -7.765625 7.648438 -7.40625 7.953125 -6.9375 C 8.253906 -6.46875 8.40625 -5.921875 8.40625 -5.296875 C 8.40625 -4.679688 8.265625 -4.148438 7.984375 -3.703125 C 7.703125 -3.253906 7.296875 -2.898438 6.765625 -2.640625 L 8.578125 0 L 6.03125 0 Z M 6.015625 -5.296875 C 6.015625 -5.679688 5.890625 -5.984375 5.640625 -6.203125 C 5.390625 -6.421875 5.019531 -6.53125 4.53125 -6.53125 L 3.21875 -6.53125 L 3.21875 -4.0625 L 4.53125 -4.0625 C 5.019531 -4.0625 5.390625 -4.164062 5.640625 -4.375 C 5.890625 -4.59375 6.015625 -4.898438 6.015625 -5.296875 Z M 6.015625 -5.296875 "/></g></g></g><g fill="#000000" fill-opacity="1"><g transform="translate(160.560263, 25.55984)"><g><path d="M 7.578125 -1.84375 L 7.578125 0 L 0.84375 0 L 0.84375 -8.40625 L 7.421875 -8.40625 L 7.421875 -6.5625 L 3.1875 -6.5625 L 3.1875 -5.140625 L 6.921875 -5.140625 L 6.921875 -3.375 L 3.1875 -3.375 L 3.1875 -1.84375 Z M 7.578125 -1.84375 "/></g></g></g></svg>