<svg xmlns="http://www.w3.org/2000/svg" xmlns:xlink="http://www.w3.org/1999/xlink" width="400" zoomAndPan="magnify" viewBox="0 0 300 187.499995" height="250" preserveAspectRatio="xMidYMid meet" version="1.0"><defs><g/></defs><g fill="#ffffff" fill-opacity="1"><g transform="translate(34.745322, 115.192811)"><g><path d="M 1.078125 -35.28125 L 2.265625 -12.28125 L 26.34375 -13.296875 L 26.390625 -8.03125 L 2.578125 -7.21875 L 3.0625 0.265625 L 36.078125 -0.375 L 34.90625 -22.453125 L 11.578125 -21.328125 L 11.203125 -26.390625 L 34.84375 -27.6875 L 33.984375 -37.375 Z M 1.078125 -35.28125 "/></g></g></g><g fill="#ffffff" fill-opacity="1"><g transform="translate(75.676189, 115.192811)"><g><path d="M 1.078125 -37.109375 L 2.75 0 L 34.6875 -0.109375 L 33.71875 -12.171875 L 11.953125 -11.84375 L 11.90625 -27.3125 L 33.71875 -27.6875 L 34.046875 -37.109375 Z M 1.078125 -37.109375 "/></g></g></g><g fill="#ffffff" fill-opacity="1"><g transform="translate(115.206782, 115.192811)"><g><path d="M 38.5625 -36.84375 L 1.078125 -34.53125 L 1.71875 -0.265625 L 40.078125 -0.046875 Z M 12.125 -9.859375 L 11.203125 -27.953125 L 29.46875 -28.765625 L 29.734375 -9.859375 Z M 12.125 -9.859375 "/></g></g></g><g fill="#ffffff" fill-opacity="1"><g transform="translate(160.123017, 115.192811)"><g><path d="M 1.078125 -37.109375 L 2.15625 0.265625 L 11.578125 0 L 11.84375 -17.015625 L 16.640625 -16.90625 L 29.734375 0.484375 L 41.84375 0.265625 L 28.390625 -17.125 L 36.84375 -17.28125 L 37.4375 -37.75 Z M 23.15625 -23.328125 L 11.359375 -23.265625 L 11.359375 -29.671875 L 22.9375 -29.78125 Z M 23.15625 -23.328125 "/></g></g></g><g fill="#ffffff" fill-opacity="1"><g transform="translate(206.816506, 115.192811)"><g><path d="M 12.171875 -21 L 12.171875 -27.09375 L 38.453125 -26.828125 L 38.453125 -36.296875 L 1.078125 -36.84375 L 1.453125 -0.109375 L 37.4375 0.109375 L 37.109375 -8.78125 L 12.4375 -9.421875 L 12.546875 -15.9375 L 32.796875 -15.625 L 33.125 -20.625 Z M 12.171875 -21 "/></g></g></g><g fill="#ffffff" fill-opacity="1"><g transform="translate(250.117058, 115.192811)"><g><path d="M 1.34375 -34.578125 L 1.078125 -22.140625 L 13.515625 -22.140625 L 14.0625 -34.578125 Z M 1.34375 -12.65625 L 1.078125 -0.15625 L 13.515625 -0.15625 L 14.0625 -12.65625 Z M 1.34375 -12.65625 "/></g></g></g></svg>