<svg xmlns="http://www.w3.org/2000/svg" xmlns:xlink="http://www.w3.org/1999/xlink" width="500" zoomAndPan="magnify" viewBox="0 0 375 374.999991" height="500" preserveAspectRatio="xMidYMid meet" version="1.0"><defs><clipPath id="ca6637833c"><path d="M 40 38 L 222 38 L 222 337.5 L 40 337.5 Z M 40 38 " clip-rule="nonzero"/></clipPath></defs><g clip-path="url(#ca6637833c)"><path fill="#ffffff" d="M 215.617188 39.625 C 211.9375 37.847656 207.515625 38.34375 204.335938 40.898438 L 100.160156 123.976562 L 50.84375 123.976562 C 44.945312 123.976562 40.167969 128.757812 40.167969 134.652344 L 40.167969 241.414062 C 40.167969 247.308594 44.945312 252.089844 50.84375 252.089844 L 100.160156 252.089844 L 204.335938 335.167969 C 206.253906 336.707031 208.609375 337.5 210.988281 337.5 C 212.5625 337.5 214.148438 337.152344 215.617188 336.441406 C 219.316406 334.664062 221.664062 330.925781 221.664062 326.824219 L 221.664062 49.242188 C 221.664062 45.140625 219.316406 41.402344 215.617188 39.625 Z M 215.617188 39.625 " fill-opacity="1" fill-rule="nonzero"/></g><path fill="#ffffff" d="M 235.46875 137.78125 C 231.296875 141.949219 231.296875 148.707031 235.46875 152.878906 C 252.222656 169.636719 252.222656 206.429688 235.46875 223.191406 C 231.296875 227.359375 231.296875 234.117188 235.46875 238.285156 C 237.554688 240.371094 240.285156 241.414062 243.015625 241.414062 C 245.746094 241.414062 248.480469 240.371094 250.5625 238.285156 C 275.460938 213.394531 275.460938 162.671875 250.5625 137.78125 C 246.394531 133.609375 239.636719 133.609375 235.46875 137.78125 Z M 235.46875 137.78125 " fill-opacity="1" fill-rule="nonzero"/><path fill="#ffffff" d="M 304.277344 106.097656 C 300.296875 101.742188 293.519531 101.445312 289.191406 105.425781 C 284.84375 109.402344 284.542969 116.152344 288.515625 120.503906 C 303.507812 136.898438 312.691406 162.664062 313.078125 189.414062 C 313.472656 216.785156 304.769531 240.648438 289.191406 254.886719 C 284.84375 258.867188 284.542969 265.617188 288.515625 269.972656 C 290.621094 272.277344 293.507812 273.441406 296.398438 273.441406 C 298.972656 273.441406 301.546875 272.519531 303.601562 270.648438 C 323.671875 252.292969 334.910156 222.574219 334.429688 189.109375 C 333.972656 157.273438 322.703125 126.246094 304.277344 106.097656 Z M 304.277344 106.097656 " fill-opacity="1" fill-rule="nonzero"/></svg>